<svg xmlns="http://www.w3.org/2000/svg" viewBox="0 0 720.86276 504.47055"><defs><style>.cls-1, .cls-2, .cls-3 { fill: none; stroke: #191919; stroke-linecap: round; stroke-linejoin: round; stroke-width: 2.47055px; } .cls-2 { stroke-dasharray: 3.98229 5.97344; } .cls-3 { stroke-dasharray: 3.99102 5.98653; } .cls-4 { isolation: isolate; } .cls-5 { fill: #191919; }</style></defs><title>wifi-maslow-rgb-ol</title><g id="Layer_1"><path class="cls-1" d="M464.899 147.235h-208.935l-42.574 59.5h294.083l-42.574-59.5zM507.473 206.735h-294.083l-42.574 59.5h379.231l-42.574-59.5zM360.431 1.235l-104.467 146h208.935l-104.468-146zM550.047 266.235h-379.231l-42.574 59.5h464.379l-42.574-59.5zM592.621 325.735h-464.379l-42.574 59.5h549.527l-42.574-59.5zM361.595 2.862l-1.164-1.627-1.163 1.627"/><path class="cls-2" d="M355.792 7.72l-351.655 491.46"/><path class="cls-1" d="M2.399 501.609l-1.164 1.626h2"/><path class="cls-3" d="M9.222 503.235h705.412"/><path class="cls-1" d="M717.627 503.235h2l-1.163-1.626"/><path class="cls-2" d="M714.988 496.751l-351.655-491.46"/></g><g id="Layer_3"><g class="cls-4"><path class="cls-5" d="M307.241 165.327v3.128h-10.165v5.508h9.213v3.093h-9.213v5.983h10.165v3.162h-13.632v-20.874z"/><path class="cls-5" d="M322.347 176.971a3.743 3.743 0 0 0-2.006-.51 2.943 2.943 0 0 0-3.026 2.414v9.757h-3.399v-15.095h3.399v1.564a3.79 3.79 0 0 1 3.366-1.904 4.218 4.218 0 0 1 1.666.272z" transform="translate(-3.035 -2.431)"/><path class="cls-5" d="M327.234 179.775l-1.394 1.429v4.997h-3.399v-22.098h3.399v13.19l5.916-6.188h4.352l-6.425 6.527 6.663 8.567h-4.113z"/><path class="cls-5" d="M353.762 183.941c-.51 2.991-2.72 5.031-6.357 5.031-4.216 0-7.14-3.195-7.14-7.854 0-4.521 2.958-7.921 7.071-7.921 4.25 0 6.562 3.025 6.562 7.445v1.224h-10.301c.102 2.652 1.632 4.25 3.808 4.25a2.994 2.994 0 0 0 3.229-2.176zm-10.063-4.556h6.833a3.078 3.078 0 0 0-3.162-3.332 3.639 3.639 0 0 0-3.672 3.332zM357.027 173.537h3.399v1.428a5.469 5.469 0 0 1 4.08-1.768c3.434 0 5.337 2.278 5.337 5.609v9.825h-3.399v-9.247c0-1.87-.918-3.094-2.855-3.094a3.199 3.199 0 0 0-3.162 2.414v9.927h-3.399zM373.857 173.537h3.399v1.428a5.466 5.466 0 0 1 4.079-1.768c3.434 0 5.338 2.278 5.338 5.609v9.825h-3.399v-9.247c0-1.87-.918-3.094-2.856-3.094a3.198 3.198 0 0 0-3.161 2.414v9.927h-3.399zM392.386 171.056a2.074 2.074 0 1 1 2.108-2.074 2.111 2.111 0 0 1-2.108 2.074zm1.7 17.576h-3.399v-15.095h3.399zM398.302 173.537h3.399v1.428a5.47 5.47 0 0 1 4.08-1.768c3.434 0 5.337 2.278 5.337 5.609v9.825h-3.399v-9.247c0-1.87-.918-3.094-2.855-3.094a3.199 3.199 0 0 0-3.162 2.414v9.927h-3.399zM424.923 186.932a5.18 5.18 0 0 1-3.842 1.564c-4.453 0-7.003-3.672-7.003-7.649s2.55-7.649 7.003-7.649a5.183 5.183 0 0 1 3.842 1.563v-1.224h3.399v13.837c0 5.1-3.094 7.377-7.104 7.377-3.842 0-6.324-2.006-6.698-5.303h3.298c.34 1.665 1.53 2.516 3.4 2.516 2.516 0 3.705-1.53 3.705-4.352zm0-8.94a3.789 3.789 0 0 0-3.264-1.802c-2.617 0-4.113 1.972-4.113 4.657s1.496 4.657 4.113 4.657a3.789 3.789 0 0 0 3.264-1.802z" transform="translate(-3.035 -2.431)"/></g><g class="cls-4"><path class="cls-5" d="M344.726 97.867h-15.604v-2.481l11.015-15.265h-10.845v-3.128h15.265v2.448l-10.981 15.264h11.151z"/><path class="cls-5" d="M363.673 95.607c-.511 2.991-2.72 5.031-6.357 5.031-4.216 0-7.14-3.195-7.14-7.854 0-4.521 2.958-7.921 7.071-7.921 4.25 0 6.562 3.025 6.562 7.445v1.224h-10.301c.102 2.652 1.632 4.25 3.808 4.25a2.994 2.994 0 0 0 3.229-2.176zm-10.063-4.556h6.833a3.078 3.078 0 0 0-3.162-3.332 3.639 3.639 0 0 0-3.672 3.332z" transform="translate(-3.035 -2.431)"/><path class="cls-5" d="M367.302 97.867h-3.399v-22.098h3.399z"/><path class="cls-5" d="M382.883 81.26a3.037 3.037 0 0 0-1.666-.476 2.067 2.067 0 0 0-2.21 2.312v2.107h3.298v2.822h-3.298v12.273h-3.332v-12.273h-2.617v-2.822h2.617v-2.346a4.665 4.665 0 0 1 4.964-4.997 5.184 5.184 0 0 1 2.244.408z" transform="translate(-3.035 -2.431)"/><path class="cls-5" d="M381.548 87.396h8.193v3.094h-8.193z"/><path class="cls-5" d="M311.722 117.437a3.743 3.743 0 0 0-2.006-.51 2.944 2.944 0 0 0-3.026 2.414v9.757h-3.399v-15.095h3.399v1.564a3.79 3.79 0 0 1 3.366-1.904 4.218 4.218 0 0 1 1.666.272zM326.784 124.407c-.51 2.991-2.72 5.031-6.357 5.031-4.216 0-7.14-3.195-7.14-7.854 0-4.521 2.958-7.921 7.071-7.921 4.25 0 6.562 3.025 6.562 7.445v1.224h-10.301c.102 2.652 1.632 4.25 3.808 4.25a2.994 2.994 0 0 0 3.229-2.176zm-10.063-4.556h6.833a3.078 3.078 0 0 0-3.162-3.332 3.639 3.639 0 0 0-3.672 3.332zM338.446 129.098v-.85a6.064 6.064 0 0 1-3.74 1.122c-3.093 0-5.643-1.836-5.643-4.93 0-2.856 2.55-4.861 5.881-4.861a7.089 7.089 0 0 1 3.501.917v-1.224a2.601 2.601 0 0 0-2.89-2.72 2.455 2.455 0 0 0-2.584 1.632h-3.264a5.72 5.72 0 0 1 5.916-4.521c3.808 0 6.051 2.107 6.051 5.542v9.893zm0-5.27c-.374-.952-1.734-1.53-3.094-1.53-1.53 0-3.127.646-3.127 2.143 0 1.529 1.598 2.176 3.127 2.176 1.36 0 2.72-.578 3.094-1.53z" transform="translate(-3.035 -2.431)"/><path class="cls-5" d="M346.053 126.667h-3.399v-22.098h3.399z"/><path class="cls-5" d="M355.004 111.522a2.074 2.074 0 1 1 2.108-2.074 2.111 2.111 0 0 1-2.108 2.074zm1.7 17.576h-3.399v-15.095h3.399zM363.334 124.747a2.825 2.825 0 0 0 2.992 1.903c1.563 0 2.584-.611 2.584-1.802 0-.815-.511-1.258-1.769-1.563l-3.127-.748c-2.142-.51-3.74-1.666-3.74-4.147 0-2.72 2.414-4.726 5.711-4.726 3.535 0 5.541 1.7 6.051 4.454h-3.331a2.56 2.56 0 0 0-2.754-1.666c-1.19 0-2.414.544-2.414 1.733 0 .68.477 1.122 1.564 1.395l3.195.747c2.584.612 3.876 2.074 3.876 4.284 0 2.991-2.482 4.827-5.882 4.827-3.535 0-5.983-1.768-6.425-4.691zM383.903 129.098v-.85a6.066 6.066 0 0 1-3.74 1.122c-3.093 0-5.643-1.836-5.643-4.93 0-2.856 2.55-4.861 5.881-4.861a7.091 7.091 0 0 1 3.502.917v-1.224a2.601 2.601 0 0 0-2.89-2.72 2.454 2.454 0 0 0-2.584 1.632h-3.264a5.72 5.72 0 0 1 5.915-4.521c3.808 0 6.052 2.107 6.052 5.542v9.893zm0-5.27c-.374-.952-1.734-1.53-3.094-1.53-1.53 0-3.128.646-3.128 2.143 0 1.529 1.598 2.176 3.128 2.176 1.359 0 2.72-.578 3.094-1.53zM391.757 116.826h-2.38v-2.822h2.38v-4.045h3.399v4.045h3.399v2.822h-3.399v7.819a1.591 1.591 0 0 0 1.802 1.768 3.638 3.638 0 0 0 1.938-.612v3.094a5.259 5.259 0 0 1-2.549.544c-2.687 0-4.59-1.428-4.59-4.419zM404.065 111.522a2.074 2.074 0 1 1 2.108-2.074 2.111 2.111 0 0 1-2.108 2.074zm1.7 17.576h-3.399v-15.095h3.399zM422.424 124.407c-.511 2.991-2.72 5.031-6.357 5.031-4.216 0-7.14-3.195-7.14-7.854 0-4.521 2.958-7.921 7.071-7.921 4.25 0 6.562 3.025 6.562 7.445v1.224h-10.301c.102 2.652 1.632 4.25 3.808 4.25a2.994 2.994 0 0 0 3.229-2.176zm-10.063-4.556h6.833a3.077 3.077 0 0 0-3.161-3.332 3.638 3.638 0 0 0-3.672 3.332z" transform="translate(-3.035 -2.431)"/></g><g class="cls-4"><path class="cls-5" d="M251.833 243.186c.68 2.142 2.448 3.128 4.726 3.128 2.448 0 4.045-1.156 4.045-3.094 0-1.462-.85-2.313-3.026-2.822l-3.536-.85c-2.89-.68-5.201-2.244-5.201-5.609 0-3.536 2.89-6.188 7.105-6.188 4.521 0 7.173 2.312 7.921 5.779h-3.536a4.173 4.173 0 0 0-4.352-2.788c-2.244 0-3.773 1.156-3.773 2.891 0 1.394.884 2.277 2.753 2.72l3.638.85c3.264.748 5.406 2.651 5.406 5.779 0 3.909-3.128 6.323-7.445 6.323-4.42 0-7.582-2.244-8.329-6.119z" transform="translate(-3.035 -2.431)"/><path class="cls-5" d="M270.557 246.874c-4.25 0-7.173-3.264-7.173-7.887 0-4.624 2.924-7.888 7.173-7.888s7.173 3.264 7.173 7.888c0 4.623-2.924 7.887-7.173 7.887zm0-12.851c-2.448 0-3.773 2.107-3.773 4.964 0 2.855 1.326 4.963 3.773 4.963s3.774-2.107 3.774-4.963-1.326-4.964-3.774-4.964z"/><path class="cls-5" d="M290.014 233.531c3.604 0 5.881 2.04 6.323 5.065h-3.399a2.683 2.683 0 0 0-2.89-2.107c-2.278 0-3.671 2.073-3.671 4.93 0 2.855 1.394 4.929 3.671 4.929a2.682 2.682 0 0 0 2.89-2.107h3.399c-.442 3.025-2.72 5.065-6.323 5.065-4.08 0-7.038-3.195-7.038-7.887s2.958-7.888 7.038-7.888zM301.064 231.389a2.074 2.074 0 1 1 2.108-2.074 2.111 2.111 0 0 1-2.108 2.074zm1.7 17.576h-3.399v-15.095h3.399zM315.377 248.965v-.85a6.065 6.065 0 0 1-3.74 1.121c-3.093 0-5.643-1.835-5.643-4.929 0-2.856 2.55-4.862 5.881-4.862a7.088 7.088 0 0 1 3.501.918v-1.224a2.601 2.601 0 0 0-2.89-2.72 2.455 2.455 0 0 0-2.584 1.632h-3.264a5.72 5.72 0 0 1 5.916-4.521c3.808 0 6.051 2.108 6.051 5.542v9.893zm0-5.27c-.374-.952-1.734-1.529-3.094-1.529-1.53 0-3.127.645-3.127 2.142 0 1.529 1.598 2.176 3.127 2.176 1.36 0 2.72-.578 3.094-1.53z" transform="translate(-3.035 -2.431)"/><path class="cls-5" d="M322.984 246.534h-3.399v-22.098h3.399z"/><path class="cls-5" d="M342.678 244.274c-.51 2.991-2.72 5.031-6.357 5.031-4.216 0-7.14-3.195-7.14-7.854 0-4.521 2.958-7.921 7.071-7.921 4.25 0 6.562 3.025 6.562 7.445v1.224h-10.301c.102 2.652 1.632 4.25 3.808 4.25a2.994 2.994 0 0 0 3.229-2.176zm-10.063-4.556h6.833a3.078 3.078 0 0 0-3.162-3.332 3.638 3.638 0 0 0-3.671 3.332zM356.857 248.965h-3.399v-22.098h3.399v8.295a5.145 5.145 0 0 1 3.842-1.632c4.419 0 7.003 3.569 7.003 7.888 0 4.352-2.584 7.887-7.003 7.887a5.145 5.145 0 0 1-3.842-1.632zm0-4.691a3.666 3.666 0 0 0 3.264 2.006c2.618 0 4.182-2.074 4.182-4.861 0-2.788-1.564-4.862-4.182-4.862a3.666 3.666 0 0 0-3.264 2.006zM383.41 244.274c-.511 2.991-2.72 5.031-6.357 5.031-4.216 0-7.14-3.195-7.14-7.854 0-4.521 2.958-7.921 7.071-7.921 4.25 0 6.562 3.025 6.562 7.445v1.224h-10.301c.102 2.652 1.632 4.25 3.808 4.25a2.994 2.994 0 0 0 3.229-2.176zm-10.063-4.556h6.833a3.077 3.077 0 0 0-3.161-3.332 3.638 3.638 0 0 0-3.672 3.332zM386.674 226.868h3.399v8.431a5.47 5.47 0 0 1 4.08-1.768c3.434 0 5.337 2.278 5.337 5.609v9.825h-3.399v-9.247c0-1.87-.918-3.094-2.855-3.094a3.199 3.199 0 0 0-3.162 2.414v9.927h-3.399z" transform="translate(-3.035 -2.431)"/><path class="cls-5" d="M406.588 246.874c-4.25 0-7.174-3.264-7.174-7.887 0-4.624 2.924-7.888 7.174-7.888 4.249 0 7.173 3.264 7.173 7.888 0 4.623-2.924 7.887-7.173 7.887zm0-12.851c-2.448 0-3.773 2.107-3.773 4.964 0 2.855 1.325 4.963 3.773 4.963 2.447 0 3.773-2.107 3.773-4.963s-1.326-4.964-3.773-4.964z"/><path class="cls-5" d="M432.505 244.274c-.51 2.991-2.72 5.031-6.357 5.031-4.216 0-7.14-3.195-7.14-7.854 0-4.521 2.958-7.921 7.071-7.921 4.25 0 6.562 3.025 6.562 7.445v1.224h-10.301c.103 2.652 1.632 4.25 3.808 4.25a2.994 2.994 0 0 0 3.229-2.176zm-10.063-4.556h6.833a3.078 3.078 0 0 0-3.162-3.332 3.637 3.637 0 0 0-3.671 3.332zM444.098 229.927a3.038 3.038 0 0 0-1.666-.476 2.067 2.067 0 0 0-2.209 2.312v2.107h3.297v2.822h-3.297v12.272h-3.332v-12.272h-2.618v-2.822h2.618v-2.346a4.665 4.665 0 0 1 4.964-4.997 5.179 5.179 0 0 1 2.243.408zM455.998 247.673a5.144 5.144 0 0 1-3.842 1.632c-4.419 0-7.003-3.535-7.003-7.887 0-4.318 2.584-7.888 7.003-7.888a5.144 5.144 0 0 1 3.842 1.632v-8.295h3.399v22.098h-3.399zm0-9.111a3.666 3.666 0 0 0-3.264-2.006c-2.617 0-4.182 2.074-4.182 4.862 0 2.787 1.564 4.861 4.182 4.861a3.666 3.666 0 0 0 3.264-2.006zM476.058 244.274c-.511 2.991-2.72 5.031-6.357 5.031-4.216 0-7.14-3.195-7.14-7.854 0-4.521 2.958-7.921 7.071-7.921 4.25 0 6.562 3.025 6.562 7.445v1.224h-10.301c.102 2.652 1.632 4.25 3.808 4.25a2.994 2.994 0 0 0 3.229-2.176zm-10.063-4.556h6.833a3.077 3.077 0 0 0-3.161-3.332 3.638 3.638 0 0 0-3.672 3.332z" transform="translate(-3.035 -2.431)"/></g><g class="cls-4"><path class="cls-5" d="M212.213 306.868l-7.888-20.874h3.706l5.915 16.284 5.916-16.284h3.604l-7.887 20.874z"/><path class="cls-5" d="M240.034 304.608c-.51 2.991-2.72 5.031-6.357 5.031-4.216 0-7.14-3.195-7.14-7.854 0-4.521 2.958-7.921 7.071-7.921 4.25 0 6.562 3.025 6.562 7.445v1.224h-10.301c.102 2.652 1.632 4.25 3.808 4.25a2.994 2.994 0 0 0 3.229-2.176zm-10.063-4.556h6.833a3.078 3.078 0 0 0-3.162-3.332 3.638 3.638 0 0 0-3.671 3.332zM244.999 291.723a2.074 2.074 0 1 1 2.108-2.074 2.111 2.111 0 0 1-2.108 2.074zm1.7 17.576h-3.399v-15.095h3.399z" transform="translate(-3.035 -2.431)"/><path class="cls-5" d="M251.279 306.868h-3.399v-22.098h3.399z"/><path class="cls-5" d="M260.231 291.723a2.074 2.074 0 1 1 2.108-2.074 2.111 2.111 0 0 1-2.108 2.074zm1.7 17.576h-3.399v-15.095h3.399zM275.938 307.599a5.181 5.181 0 0 1-3.842 1.564c-4.454 0-7.003-3.672-7.003-7.649s2.55-7.649 7.003-7.649a5.185 5.185 0 0 1 3.842 1.563v-1.224h3.399v13.837c0 5.1-3.094 7.377-7.105 7.377-3.842 0-6.324-2.006-6.698-5.303h3.298c.34 1.665 1.53 2.516 3.4 2.516 2.516 0 3.706-1.53 3.706-4.352zm0-8.94a3.789 3.789 0 0 0-3.264-1.802c-2.618 0-4.114 1.972-4.114 4.657s1.496 4.657 4.114 4.657a3.789 3.789 0 0 0 3.264-1.802zM283.555 287.202h3.399v8.431a5.468 5.468 0 0 1 4.08-1.768c3.434 0 5.337 2.278 5.337 5.609v9.825h-3.399v-9.247c0-1.87-.918-3.094-2.856-3.094a3.199 3.199 0 0 0-3.162 2.414v9.927h-3.399zM312.828 304.608c-.51 2.991-2.72 5.031-6.357 5.031-4.216 0-7.14-3.195-7.14-7.854 0-4.521 2.958-7.921 7.071-7.921 4.25 0 6.562 3.025 6.562 7.445v1.224h-10.301c.102 2.652 1.632 4.25 3.808 4.25a2.994 2.994 0 0 0 3.229-2.176zm-10.063-4.556h6.833a3.078 3.078 0 0 0-3.162-3.332 3.639 3.639 0 0 0-3.672 3.332zM317.792 291.723a2.074 2.074 0 1 1 2.108-2.074 2.111 2.111 0 0 1-2.108 2.074zm1.7 17.576h-3.399v-15.095h3.399zM333.499 308.007a5.145 5.145 0 0 1-3.842 1.632c-4.419 0-7.003-3.535-7.003-7.887 0-4.318 2.584-7.888 7.003-7.888a5.145 5.145 0 0 1 3.842 1.632v-8.295h3.399v22.098h-3.399zm0-9.111a3.666 3.666 0 0 0-3.264-2.006c-2.618 0-4.182 2.074-4.182 4.862 0 2.787 1.564 4.861 4.182 4.861a3.666 3.666 0 0 0 3.264-2.006zM361.073 304.608c-.51 2.991-2.72 5.031-6.357 5.031-4.216 0-7.14-3.195-7.14-7.854 0-4.521 2.958-7.921 7.071-7.921 4.25 0 6.562 3.025 6.562 7.445v1.224h-10.301c.102 2.652 1.632 4.25 3.808 4.25a2.994 2.994 0 0 0 3.229-2.176zm-10.063-4.556h6.833a3.078 3.078 0 0 0-3.162-3.332 3.639 3.639 0 0 0-3.672 3.332zM364.338 294.205h3.399v1.428a5.466 5.466 0 0 1 4.079-1.768c3.434 0 5.338 2.278 5.338 5.609v9.825h-3.399v-9.247c0-1.87-.918-3.094-2.856-3.094a3.199 3.199 0 0 0-3.161 2.414v9.927h-3.399z" transform="translate(-3.035 -2.431)"/><path class="cls-5" d="M397.239 306.868h-12.239v-2.142l7.751-10.131h-7.411v-2.822h11.763v2.142l-7.717 10.132h7.854z"/><path class="cls-5" d="M416.254 304.608c-.51 2.991-2.72 5.031-6.357 5.031-4.216 0-7.14-3.195-7.14-7.854 0-4.521 2.958-7.921 7.071-7.921 4.25 0 6.562 3.025 6.562 7.445v1.224h-10.301c.103 2.652 1.632 4.25 3.808 4.25a2.994 2.994 0 0 0 3.229-2.176zm-10.063-4.556h6.833a3.078 3.078 0 0 0-3.162-3.332 3.637 3.637 0 0 0-3.671 3.332z" transform="translate(-3.035 -2.431)"/><path class="cls-5" d="M421.277 300.442l-1.394 1.429v4.997h-3.399v-22.098h3.399v13.19l5.915-6.188h4.352l-6.425 6.527 6.663 8.567h-4.113z"/><path class="cls-5" d="M447.805 304.608c-.511 2.991-2.72 5.031-6.357 5.031-4.216 0-7.14-3.195-7.14-7.854 0-4.521 2.958-7.921 7.071-7.921 4.25 0 6.562 3.025 6.562 7.445v1.224h-10.301c.102 2.652 1.632 4.25 3.808 4.25a2.994 2.994 0 0 0 3.229-2.176zm-10.063-4.556h6.833a3.077 3.077 0 0 0-3.161-3.332 3.638 3.638 0 0 0-3.672 3.332zM459.502 297.638a3.744 3.744 0 0 0-2.006-.51 2.944 2.944 0 0 0-3.026 2.414v9.757h-3.399v-15.095h3.399v1.564a3.791 3.791 0 0 1 3.366-1.904 4.218 4.218 0 0 1 1.666.272zM462.63 287.202h3.399v8.431a5.47 5.47 0 0 1 4.08-1.768c3.434 0 5.337 2.278 5.337 5.609v9.825h-3.399v-9.247c0-1.87-.918-3.094-2.855-3.094a3.199 3.199 0 0 0-3.162 2.414v9.927h-3.399zM491.903 304.608c-.511 2.991-2.72 5.031-6.357 5.031-4.216 0-7.14-3.195-7.14-7.854 0-4.521 2.958-7.921 7.071-7.921 4.25 0 6.562 3.025 6.562 7.445v1.224h-10.301c.102 2.652 1.632 4.25 3.808 4.25a2.994 2.994 0 0 0 3.229-2.176zm-10.063-4.556h6.833a3.077 3.077 0 0 0-3.161-3.332 3.638 3.638 0 0 0-3.672 3.332zM496.867 291.723a2.074 2.074 0 1 1 2.108-2.074 2.111 2.111 0 0 1-2.108 2.074zm1.7 17.576h-3.399v-15.095h3.399zM512.575 308.007a5.146 5.146 0 0 1-3.842 1.632c-4.42 0-7.004-3.535-7.004-7.887 0-4.318 2.584-7.888 7.004-7.888a5.146 5.146 0 0 1 3.842 1.632v-8.295h3.399v22.098h-3.399zm0-9.111a3.666 3.666 0 0 0-3.264-2.006c-2.618 0-4.182 2.074-4.182 4.862 0 2.787 1.563 4.861 4.182 4.861a3.666 3.666 0 0 0 3.264-2.006z" transform="translate(-3.035 -2.431)"/></g><g class="cls-4"><path class="cls-5" d="M160.314 359.416v7.785h-3.535v-20.874h8.057c4.317 0 7.139 2.244 7.139 6.562 0 4.25-2.822 6.527-7.139 6.527zm4.454-10.029h-4.454v6.97h4.454c2.448 0 3.706-1.462 3.706-3.468 0-2.074-1.258-3.502-3.706-3.502z"/><path class="cls-5" d="M186.57 357.971a3.743 3.743 0 0 0-2.006-.51 2.944 2.944 0 0 0-3.026 2.414v9.757h-3.399v-15.095h3.399v1.564a3.79 3.79 0 0 1 3.366-1.904 4.218 4.218 0 0 1 1.666.272zM191.399 352.056a2.074 2.074 0 1 1 2.108-2.074 2.111 2.111 0 0 1-2.108 2.074zm1.7 17.576h-3.399v-15.095h3.399zM212.954 354.198c3.094 0 4.896 2.176 4.896 5.609v9.825h-3.399v-9.281c0-1.869-.816-3.094-2.482-3.094a2.671 2.671 0 0 0-2.686 2.244v10.131h-3.4v-9.281c0-1.869-.816-3.094-2.481-3.094a2.672 2.672 0 0 0-2.686 2.244v10.131h-3.399v-15.095h3.399v1.258a4.639 4.639 0 0 1 3.774-1.598 4.837 4.837 0 0 1 3.978 2.006 5.567 5.567 0 0 1 4.487-2.006zM230.26 369.632v-.85a6.065 6.065 0 0 1-3.74 1.121c-3.093 0-5.643-1.835-5.643-4.929 0-2.856 2.55-4.862 5.881-4.862a7.088 7.088 0 0 1 3.501.918v-1.224a2.601 2.601 0 0 0-2.89-2.72 2.455 2.455 0 0 0-2.584 1.632h-3.264a5.72 5.72 0 0 1 5.916-4.521c3.808 0 6.051 2.108 6.051 5.542v9.893zm0-5.27c-.374-.952-1.734-1.529-3.094-1.529-1.53 0-3.127.646-3.127 2.142 0 1.529 1.598 2.176 3.127 2.176 1.36 0 2.72-.578 3.094-1.53zM239.202 352.056a2.074 2.074 0 1 1 2.108-2.074 2.111 2.111 0 0 1-2.108 2.074zm1.7 17.576h-3.399v-15.095h3.399zM253.55 357.971a3.743 3.743 0 0 0-2.006-.51 2.944 2.944 0 0 0-3.026 2.414v9.757h-3.399v-15.095h3.399v1.564a3.79 3.79 0 0 1 3.366-1.904 4.218 4.218 0 0 1 1.666.272zM268.611 364.941c-.51 2.991-2.72 5.031-6.357 5.031-4.216 0-7.14-3.195-7.14-7.854 0-4.521 2.958-7.921 7.071-7.921 4.25 0 6.562 3.025 6.562 7.445v1.224h-10.301c.102 2.652 1.632 4.25 3.808 4.25a2.994 2.994 0 0 0 3.229-2.176zm-10.063-4.556h6.833a3.078 3.078 0 0 0-3.162-3.332 3.639 3.639 0 0 0-3.672 3.332zM282.789 369.632h-3.399v-22.098h3.399v8.295a5.145 5.145 0 0 1 3.842-1.632c4.419 0 7.003 3.569 7.003 7.888 0 4.352-2.584 7.887-7.003 7.887a5.145 5.145 0 0 1-3.842-1.632zm0-4.691a3.666 3.666 0 0 0 3.264 2.006c2.618 0 4.182-2.074 4.182-4.861 0-2.788-1.564-4.862-4.182-4.862a3.666 3.666 0 0 0-3.264 2.006zM298.497 352.056a2.074 2.074 0 1 1 2.108-2.074 2.111 2.111 0 0 1-2.108 2.074zm1.7 17.576h-3.399v-15.095h3.399z" transform="translate(-3.035 -2.431)"/><path class="cls-5" d="M307.498 367.541c-4.25 0-7.173-3.264-7.173-7.887 0-4.624 2.924-7.888 7.173-7.888s7.173 3.264 7.173 7.888c0 4.623-2.924 7.887-7.173 7.887zm0-12.851c-2.448 0-3.773 2.107-3.773 4.964 0 2.855 1.326 4.963 3.773 4.963s3.774-2.107 3.774-4.963-1.326-4.964-3.774-4.964zM321.233 367.201h-3.399v-22.098h3.399zM331.569 367.541c-4.25 0-7.173-3.264-7.173-7.887 0-4.624 2.924-7.888 7.173-7.888s7.173 3.264 7.173 7.888c0 4.623-2.924 7.887-7.173 7.887zm0-12.851c-2.448 0-3.773 2.107-3.773 4.964 0 2.855 1.326 4.963 3.773 4.963s3.774-2.107 3.774-4.963-1.326-4.964-3.774-4.964z"/><path class="cls-5" d="M354.834 367.932a5.181 5.181 0 0 1-3.842 1.564c-4.454 0-7.003-3.672-7.003-7.649s2.55-7.649 7.003-7.649a5.185 5.185 0 0 1 3.842 1.563v-1.224h3.399v13.837c0 5.1-3.094 7.377-7.105 7.377-3.842 0-6.324-2.006-6.697-5.303h3.297c.34 1.665 1.53 2.516 3.4 2.516 2.516 0 3.706-1.53 3.706-4.352zm0-8.94a3.789 3.789 0 0 0-3.264-1.802c-2.618 0-4.114 1.972-4.114 4.657s1.496 4.657 4.114 4.657a3.789 3.789 0 0 0 3.264-1.802zM364.151 352.056a2.074 2.074 0 1 1 2.107-2.074 2.112 2.112 0 0 1-2.107 2.074zm1.699 17.576h-3.399v-15.095h3.399zM372.48 365.281a2.826 2.826 0 0 0 2.992 1.904c1.563 0 2.584-.612 2.584-1.803 0-.815-.511-1.258-1.769-1.563l-3.127-.748c-2.143-.51-3.74-1.666-3.74-4.147 0-2.72 2.414-4.726 5.712-4.726 3.535 0 5.541 1.7 6.051 4.454h-3.331a2.56 2.56 0 0 0-2.754-1.666c-1.19 0-2.414.544-2.414 1.733 0 .68.477 1.122 1.564 1.394l3.195.748c2.584.612 3.876 2.074 3.876 4.284 0 2.991-2.482 4.827-5.882 4.827-3.535 0-5.983-1.768-6.426-4.691zM390.635 354.198c3.604 0 5.882 2.04 6.323 5.065h-3.399a2.681 2.681 0 0 0-2.89-2.107c-2.277 0-3.672 2.073-3.672 4.93 0 2.855 1.395 4.929 3.672 4.929a2.68 2.68 0 0 0 2.89-2.107h3.399c-.441 3.025-2.72 5.065-6.323 5.065-4.079 0-7.037-3.195-7.037-7.887s2.958-7.888 7.037-7.888zM399.986 347.535h3.399v8.431a5.466 5.466 0 0 1 4.079-1.768c3.434 0 5.338 2.278 5.338 5.609v9.825h-3.399v-9.247c0-1.87-.918-3.094-2.856-3.094a3.199 3.199 0 0 0-3.161 2.414v9.927h-3.399zM429.258 364.941c-.51 2.991-2.72 5.031-6.357 5.031-4.216 0-7.14-3.195-7.14-7.854 0-4.521 2.958-7.921 7.071-7.921 4.25 0 6.562 3.025 6.562 7.445v1.224h-10.301c.103 2.652 1.632 4.25 3.808 4.25a2.994 2.994 0 0 0 3.229-2.176zm-10.063-4.556h6.833a3.078 3.078 0 0 0-3.162-3.332 3.637 3.637 0 0 0-3.671 3.332zM443.436 369.632h-3.399v-22.098h3.399v8.295a5.146 5.146 0 0 1 3.842-1.632c4.42 0 7.004 3.569 7.004 7.888 0 4.352-2.584 7.887-7.004 7.887a5.146 5.146 0 0 1-3.842-1.632zm0-4.691a3.666 3.666 0 0 0 3.264 2.006c2.618 0 4.182-2.074 4.182-4.861 0-2.788-1.563-4.862-4.182-4.862a3.666 3.666 0 0 0-3.264 2.006zM469.99 364.941c-.511 2.991-2.72 5.031-6.357 5.031-4.216 0-7.14-3.195-7.14-7.854 0-4.521 2.958-7.921 7.071-7.921 4.25 0 6.562 3.025 6.562 7.445v1.224h-10.301c.102 2.652 1.632 4.25 3.808 4.25a2.994 2.994 0 0 0 3.229-2.176zm-10.063-4.556h6.833a3.077 3.077 0 0 0-3.161-3.332 3.638 3.638 0 0 0-3.672 3.332zM473.255 347.535h3.399v8.431a5.466 5.466 0 0 1 4.079-1.768c3.434 0 5.338 2.278 5.338 5.609v9.825h-3.399v-9.247c0-1.87-.918-3.094-2.856-3.094a3.199 3.199 0 0 0-3.161 2.414v9.927h-3.399z" transform="translate(-3.035 -2.431)"/><path class="cls-5" d="M493.169 367.541c-4.25 0-7.174-3.264-7.174-7.887 0-4.624 2.924-7.888 7.174-7.888 4.249 0 7.173 3.264 7.173 7.888 0 4.623-2.924 7.887-7.173 7.887zm0-12.851c-2.448 0-3.773 2.107-3.773 4.964 0 2.855 1.325 4.963 3.773 4.963 2.447 0 3.773-2.107 3.773-4.963s-1.326-4.964-3.773-4.964z"/><path class="cls-5" d="M519.085 364.941c-.511 2.991-2.72 5.031-6.357 5.031-4.216 0-7.14-3.195-7.14-7.854 0-4.521 2.958-7.921 7.071-7.921 4.25 0 6.562 3.025 6.562 7.445v1.224h-10.301c.102 2.652 1.632 4.25 3.808 4.25a2.994 2.994 0 0 0 3.229-2.176zm-10.063-4.556h6.833a3.077 3.077 0 0 0-3.161-3.332 3.638 3.638 0 0 0-3.672 3.332zM530.678 350.594a3.038 3.038 0 0 0-1.666-.476 2.067 2.067 0 0 0-2.209 2.312v2.107h3.297v2.822h-3.297v12.272h-3.332v-12.272h-2.618v-2.822h2.618v-2.346a4.665 4.665 0 0 1 4.964-4.997 5.179 5.179 0 0 1 2.243.408zM533.909 357.36h-2.38v-2.822h2.38v-4.045h3.399v4.045h3.399v2.822h-3.399v7.819a1.591 1.591 0 0 0 1.802 1.768 3.638 3.638 0 0 0 1.938-.612v3.094a5.259 5.259 0 0 1-2.549.544c-2.687 0-4.59-1.428-4.59-4.42zM556.79 364.941c-.51 2.991-2.72 5.031-6.357 5.031-4.216 0-7.14-3.195-7.14-7.854 0-4.521 2.958-7.921 7.071-7.921 4.25 0 6.562 3.025 6.562 7.445v1.224h-10.301c.103 2.652 1.632 4.25 3.808 4.25a2.994 2.994 0 0 0 3.229-2.176zm-10.063-4.556h6.833a3.078 3.078 0 0 0-3.162-3.332 3.637 3.637 0 0 0-3.671 3.332zM560.054 354.538h3.399v1.428a5.47 5.47 0 0 1 4.08-1.768c3.434 0 5.337 2.278 5.337 5.609v9.825h-3.399v-9.247c0-1.87-.918-3.094-2.855-3.094a3.199 3.199 0 0 0-3.162 2.414v9.927h-3.399z" transform="translate(-3.035 -2.431)"/></g><g class="cls-4"><path class="cls-5" d="M322.567 416.68l13.012 47.711 12.832-47.711h4.518l-15.09 55.482h-4.157l-13.103-47.26-13.012 47.26h-4.066l-15.181-55.482h4.609l12.831 47.711 13.012-47.711z"/><path class="cls-5" d="M366.63 425.345a3.047 3.047 0 0 1-3.073-3.072 3.073 3.073 0 0 1 6.146 0 3.046 3.046 0 0 1-3.072 3.072zm2.259 49.248h-4.519v-40.121h4.519z" transform="translate(-3.035 -2.431)"/><path class="cls-5" d="M379.407 472.162v-55.482h32.169v4.247h-27.561v21.145h26.115v4.157h-26.115v25.934z"/><path class="cls-5" d="M426.721 425.345a3.046 3.046 0 0 1-3.072-3.072 3.072 3.072 0 0 1 6.145 0 3.046 3.046 0 0 1-3.072 3.072zm2.259 49.248h-4.518v-40.121h4.518z" transform="translate(-3.035 -2.431)"/></g></g></svg>