<svg xmlns="http://www.w3.org/2000/svg" viewBox="0 0 723.9 508.8" enable-background="new 0 0 723.9 508.8"><style type="text/css">.st0{fill:none;stroke:#191919;stroke-width:2.4706;stroke-linecap:round;stroke-linejoin:round;} .st1{fill:#191919;} .st2{fill:#FFC300;} .st3{enable-background:new ;}</style><g id="Layer_1_1_"><title>merkhart-ol-rgb</title><path class="st0" d="M362.3 9.5l1.2-1.6 1.1 1.6"/><path class="st1" d="M11.1 504.4h-2c-.5 0-.9-.3-1.1-.7-.2-.4-.2-.9.1-1.3l1.2-1.6c.4-.6 1.2-.7 1.7-.3.5.3.6.9.4 1.4.5.1.9.6.9 1.2 0 .8-.5 1.3-1.2 1.3zm2.6-6.5c-.2 0-.5-.1-.7-.2-.6-.4-.7-1.2-.3-1.7l2.3-3.2c.4-.6 1.2-.7 1.7-.3.6.4.7 1.2.3 1.7l-2.3 3.2c-.2.4-.6.5-1 .5zm5.8-8.1c-.2 0-.5-.1-.7-.2-.6-.4-.7-1.2-.3-1.7l2.3-3.2c.4-.6 1.2-.7 1.7-.3.6.4.7 1.2.3 1.7l-2.3 3.2c-.2.3-.6.5-1 .5zm5.8-8.1c-.2 0-.5-.1-.7-.2-.6-.4-.7-1.2-.3-1.7l2.3-3.2c.4-.6 1.2-.7 1.7-.3.6.4.7 1.2.3 1.7l-2.3 3.2c-.2.3-.6.5-1 .5zm5.9-8.1c-.2 0-.5-.1-.7-.2-.6-.4-.7-1.2-.3-1.7l2.3-3.2c.4-.6 1.2-.7 1.7-.3.6.4.7 1.2.3 1.7l-2.3 3.2c-.3.3-.7.5-1 .5zm5.8-8.1c-.2 0-.5-.1-.7-.2-.6-.4-.7-1.2-.3-1.7l2.3-3.2c.4-.6 1.2-.7 1.7-.3.6.4.7 1.2.3 1.7l-2.3 3.2c-.3.3-.7.5-1 .5zm5.8-8.2c-.2 0-.5-.1-.7-.2-.6-.4-.7-1.2-.3-1.7l2.3-3.2c.4-.6 1.2-.7 1.7-.3.6.4.7 1.2.3 1.7l-2.3 3.2c-.3.4-.6.5-1 .5zm5.8-8.1c-.2 0-.5-.1-.7-.2-.6-.4-.7-1.2-.3-1.7l2.3-3.2c.4-.6 1.2-.7 1.7-.3.6.4.7 1.2.3 1.7l-2.3 3.2c-.3.3-.6.5-1 .5zm5.8-8.1c-.2 0-.5-.1-.7-.2-.6-.4-.7-1.2-.3-1.7l2.3-3.2c.4-.6 1.2-.7 1.7-.3.6.4.7 1.2.3 1.7l-2.3 3.2c-.2.3-.6.5-1 .5zm5.8-8.1c-.2 0-.5-.1-.7-.2-.6-.4-.7-1.2-.3-1.7l2.3-3.2c.4-.6 1.2-.7 1.7-.3.6.4.7 1.2.3 1.7l-2.3 3.2c-.2.3-.6.5-1 .5zm5.8-8.1c-.2 0-.5-.1-.7-.2-.6-.4-.7-1.2-.3-1.7l2.3-3.2c.4-.6 1.2-.7 1.7-.3.6.4.7 1.2.3 1.7l-2.3 3.2c-.2.3-.6.5-1 .5zm5.8-8.2c-.2 0-.5-.1-.7-.2-.6-.4-.7-1.2-.3-1.7l2.3-3.2c.4-.6 1.2-.7 1.7-.3.6.4.7 1.2.3 1.7l-2.3 3.2c-.2.4-.6.5-1 .5zm5.8-8.1c-.2 0-.5-.1-.7-.2-.6-.4-.7-1.2-.3-1.7l2.3-3.2c.4-.6 1.2-.7 1.7-.3.6.4.7 1.2.3 1.7l-2.3 3.2c-.2.3-.6.5-1 .5zm5.8-8.1c-.2 0-.5-.1-.7-.2-.6-.4-.7-1.2-.3-1.7l2.3-3.2c.4-.6 1.2-.7 1.7-.3.6.4.7 1.2.3 1.7l-2.3 3.2c-.2.3-.6.5-1 .5zm5.9-8.1c-.2 0-.5-.1-.7-.2-.6-.4-.7-1.2-.3-1.7l2.3-3.2c.4-.6 1.2-.7 1.7-.3.6.4.7 1.2.3 1.7l-2.3 3.2c-.3.3-.7.5-1 .5zm623.9 105.5c-.4 0-.8-.2-1-.5l-2.3-3.2c-.4-.6-.3-1.3.3-1.7.6-.4 1.3-.3 1.7.3l2.3 3.2c.4.6.3 1.3-.3 1.7-.2.2-.4.2-.7.2zm-5.8-8.1c-.4 0-.8-.2-1-.5l-2.3-3.2c-.4-.6-.3-1.3.3-1.7.6-.4 1.3-.3 1.7.3l2.3 3.2c.4.6.3 1.3-.3 1.7-.2.1-.5.2-.7.2zm-5.8-8.1c-.4 0-.8-.2-1-.5l-2.3-3.2c-.4-.6-.3-1.3.3-1.7.6-.4 1.3-.3 1.7.3l2.3 3.2c.4.6.3 1.3-.3 1.7-.2.1-.5.2-.7.2zm-5.8-8.1c-.4 0-.8-.2-1-.5l-2.3-3.2c-.4-.6-.3-1.3.3-1.7.6-.4 1.3-.3 1.7.3l2.3 3.2c.4.6.3 1.3-.3 1.7-.2.1-.5.2-.7.2zm-5.8-8.1c-.4 0-.8-.2-1-.5l-2.3-3.2c-.4-.6-.3-1.3.3-1.7.6-.4 1.3-.3 1.7.3l2.3 3.2c.4.6.3 1.3-.3 1.7-.2.1-.5.2-.7.2zm-5.8-8.2c-.4 0-.8-.2-1-.5l-2.3-3.2c-.4-.6-.3-1.3.3-1.7.6-.4 1.3-.3 1.7.3l2.3 3.2c.4.6.3 1.3-.3 1.7-.2.2-.5.2-.7.2zm-5.8-8.1c-.4 0-.8-.2-1-.5l-2.3-3.2c-.4-.6-.3-1.3.3-1.7.6-.4 1.3-.3 1.7.3l2.3 3.2c.4.6.3 1.3-.3 1.7-.2.1-.5.2-.7.2zm-5.9-8.1c-.4 0-.8-.2-1-.5l-2.3-3.2c-.4-.6-.3-1.3.3-1.7.6-.4 1.3-.3 1.7.3l2.3 3.2c.4.6.3 1.3-.3 1.7-.2.1-.4.2-.7.2zm-5.8-8.1c-.4 0-.8-.2-1-.5l-2.3-3.2c-.4-.6-.3-1.3.3-1.7.6-.4 1.3-.3 1.7.3l2.3 3.2c.4.6.3 1.3-.3 1.7-.2.1-.4.2-.7.2zm-5.8-8.1c-.4 0-.8-.2-1-.5l-2.3-3.2c-.4-.6-.3-1.3.3-1.7.6-.4 1.3-.3 1.7.3l2.3 3.2c.4.6.3 1.3-.3 1.7-.2.1-.4.2-.7.2zm-5.8-8.2c-.4 0-.8-.2-1-.5l-2.3-3.2c-.4-.6-.3-1.3.3-1.7.6-.4 1.3-.3 1.7.3l2.3 3.2c.4.6.3 1.3-.3 1.7-.2.2-.4.2-.7.2zm-5.8-8.1c-.4 0-.8-.2-1-.5l-2.3-3.2c-.4-.6-.3-1.3.3-1.7.6-.4 1.3-.3 1.7.3l2.3 3.2c.4.6.3 1.3-.3 1.7-.2.1-.4.2-.7.2zm-5.8-8.1c-.4 0-.8-.2-1-.5l-2.3-3.2c-.4-.6-.3-1.3.3-1.7.6-.4 1.3-.3 1.7.3l2.3 3.2c.4.6.3 1.3-.3 1.7-.2.1-.5.2-.7.2zm-5.8-8.1c-.4 0-.8-.2-1-.5l-2.3-3.2c-.4-.6-.3-1.3.3-1.7.6-.4 1.3-.3 1.7.3l2.3 3.2c.4.6.3 1.3-.3 1.7-.2.1-.5.2-.7.2zm80.2 112h-2c-.7 0-1.2-.6-1.2-1.2s.4-1.1.9-1.2c-.2-.5 0-1.1.4-1.4.6-.4 1.3-.3 1.7.3l1.2 1.6c.3.4.3.9.1 1.3-.3.4-.7.6-1.1.6zm-8 0h-4c-.7 0-1.2-.6-1.2-1.2s.6-1.2 1.2-1.2h4c.7 0 1.2.6 1.2 1.2s-.6 1.2-1.2 1.2zm-10 0h-4c-.7 0-1.2-.6-1.2-1.2s.6-1.2 1.2-1.2h4c.7 0 1.2.6 1.2 1.2s-.5 1.2-1.2 1.2zm-10 0h-4c-.7 0-1.2-.6-1.2-1.2s.6-1.2 1.2-1.2h4c.7 0 1.2.6 1.2 1.2s-.5 1.2-1.2 1.2zm-10 0h-4c-.7 0-1.2-.6-1.2-1.2s.6-1.2 1.2-1.2h4c.7 0 1.2.6 1.2 1.2s-.5 1.2-1.2 1.2zm-10 0h-4c-.7 0-1.2-.6-1.2-1.2s.6-1.2 1.2-1.2h4c.7 0 1.2.6 1.2 1.2s-.5 1.2-1.2 1.2zm-9.9 0h-4c-.7 0-1.2-.6-1.2-1.2s.6-1.2 1.2-1.2h4c.7 0 1.2.6 1.2 1.2s-.6 1.2-1.2 1.2zm-10 0h-4c-.7 0-1.2-.6-1.2-1.2s.6-1.2 1.2-1.2h4c.7 0 1.2.6 1.2 1.2s-.5 1.2-1.2 1.2zm-10 0h-4c-.7 0-1.2-.6-1.2-1.2s.6-1.2 1.2-1.2h4c.7 0 1.2.6 1.2 1.2s-.5 1.2-1.2 1.2zm-10 0h-4c-.7 0-1.2-.6-1.2-1.2s.6-1.2 1.2-1.2h4c.7 0 1.2.6 1.2 1.2s-.5 1.2-1.2 1.2zm-10 0h-4c-.7 0-1.2-.6-1.2-1.2s.6-1.2 1.2-1.2h4c.7 0 1.2.6 1.2 1.2s-.5 1.2-1.2 1.2zm-10 0h-4c-.7 0-1.2-.6-1.2-1.2s.6-1.2 1.2-1.2h4c.7 0 1.2.6 1.2 1.2s-.5 1.2-1.2 1.2zm-9.9 0h-4c-.7 0-1.2-.6-1.2-1.2s.6-1.2 1.2-1.2h4c.7 0 1.2.6 1.2 1.2s-.6 1.2-1.2 1.2zm-10 0h-4c-.7 0-1.2-.6-1.2-1.2s.6-1.2 1.2-1.2h4c.7 0 1.2.6 1.2 1.2s-.5 1.2-1.2 1.2zm-10 0h-4c-.7 0-1.2-.6-1.2-1.2s.6-1.2 1.2-1.2h4c.7 0 1.2.6 1.2 1.2s-.5 1.2-1.2 1.2zm-10 0h-4c-.7 0-1.2-.6-1.2-1.2s.6-1.2 1.2-1.2h4c.7 0 1.2.6 1.2 1.2s-.5 1.2-1.2 1.2zm-10 0h-4c-.7 0-1.2-.6-1.2-1.2s.6-1.2 1.2-1.2h4c.7 0 1.2.6 1.2 1.2s-.5 1.2-1.2 1.2zm-10 0h-4c-.7 0-1.2-.6-1.2-1.2s.6-1.2 1.2-1.2h4c.7 0 1.2.6 1.2 1.2s-.5 1.2-1.2 1.2zm-9.9 0h-4c-.7 0-1.2-.6-1.2-1.2s.6-1.2 1.2-1.2h4c.7 0 1.2.6 1.2 1.2s-.6 1.2-1.2 1.2zm-10 0h-4c-.7 0-1.2-.6-1.2-1.2s.6-1.2 1.2-1.2h4c.7 0 1.2.6 1.2 1.2s-.5 1.2-1.2 1.2zm-10 0h-4c-.7 0-1.2-.6-1.2-1.2s.6-1.2 1.2-1.2h4c.7 0 1.2.6 1.2 1.2s-.5 1.2-1.2 1.2zm-10 0h-4c-.7 0-1.2-.6-1.2-1.2s.6-1.2 1.2-1.2h4c.7 0 1.2.6 1.2 1.2s-.5 1.2-1.2 1.2zm-10 0h-4c-.7 0-1.2-.6-1.2-1.2s.6-1.2 1.2-1.2h4c.7 0 1.2.6 1.2 1.2s-.5 1.2-1.2 1.2zm-10 0h-4c-.7 0-1.2-.6-1.2-1.2s.6-1.2 1.2-1.2h4c.7 0 1.2.6 1.2 1.2s-.5 1.2-1.2 1.2zm-9.9 0h-4c-.7 0-1.2-.6-1.2-1.2s.6-1.2 1.2-1.2h4c.7 0 1.2.6 1.2 1.2s-.6 1.2-1.2 1.2zm-10 0h-4c-.7 0-1.2-.6-1.2-1.2s.6-1.2 1.2-1.2h4c.7 0 1.2.6 1.2 1.2s-.5 1.2-1.2 1.2zm-10 0h-4c-.7 0-1.2-.6-1.2-1.2s.6-1.2 1.2-1.2h4c.7 0 1.2.6 1.2 1.2s-.5 1.2-1.2 1.2zm-10 0h-4c-.7 0-1.2-.6-1.2-1.2s.6-1.2 1.2-1.2h4c.7 0 1.2.6 1.2 1.2s-.5 1.2-1.2 1.2zm-10 0h-4c-.7 0-1.2-.6-1.2-1.2s.6-1.2 1.2-1.2h4c.7 0 1.2.6 1.2 1.2s-.5 1.2-1.2 1.2zm-9.9 0h-4c-.7 0-1.2-.6-1.2-1.2s.6-1.2 1.2-1.2h4c.7 0 1.2.6 1.2 1.2s-.6 1.2-1.2 1.2zm-10 0h-4c-.7 0-1.2-.6-1.2-1.2s.6-1.2 1.2-1.2h4c.7 0 1.2.6 1.2 1.2s-.5 1.2-1.2 1.2zm-10 0h-4c-.7 0-1.2-.6-1.2-1.2s.6-1.2 1.2-1.2h4c.7 0 1.2.6 1.2 1.2s-.5 1.2-1.2 1.2zm-10 0h-4c-.7 0-1.2-.6-1.2-1.2s.6-1.2 1.2-1.2h4c.7 0 1.2.6 1.2 1.2s-.5 1.2-1.2 1.2zm-10 0h-4c-.7 0-1.2-.6-1.2-1.2s.6-1.2 1.2-1.2h4c.7 0 1.2.6 1.2 1.2s-.5 1.2-1.2 1.2zm-10 0h-4c-.7 0-1.2-.6-1.2-1.2s.6-1.2 1.2-1.2h4c.7 0 1.2.6 1.2 1.2s-.5 1.2-1.2 1.2zm-9.9 0h-4c-.7 0-1.2-.6-1.2-1.2s.6-1.2 1.2-1.2h4c.7 0 1.2.6 1.2 1.2s-.6 1.2-1.2 1.2zm-10 0h-4c-.7 0-1.2-.6-1.2-1.2s.6-1.2 1.2-1.2h4c.7 0 1.2.6 1.2 1.2s-.5 1.2-1.2 1.2zm-10 0h-4c-.7 0-1.2-.6-1.2-1.2s.6-1.2 1.2-1.2h4c.7 0 1.2.6 1.2 1.2s-.5 1.2-1.2 1.2zm-10 0h-4c-.7 0-1.2-.6-1.2-1.2s.6-1.2 1.2-1.2h4c.7 0 1.2.6 1.2 1.2s-.5 1.2-1.2 1.2zm-10 0h-4c-.7 0-1.2-.6-1.2-1.2s.6-1.2 1.2-1.2h4c.7 0 1.2.6 1.2 1.2s-.5 1.2-1.2 1.2zm-10 0h-4c-.7 0-1.2-.6-1.2-1.2s.6-1.2 1.2-1.2h4c.7 0 1.2.6 1.2 1.2s-.5 1.2-1.2 1.2zm-9.9 0h-4c-.7 0-1.2-.6-1.2-1.2s.6-1.2 1.2-1.2h4c.7 0 1.2.6 1.2 1.2s-.6 1.2-1.2 1.2zm-10 0h-4c-.7 0-1.2-.6-1.2-1.2s.6-1.2 1.2-1.2h4c.7 0 1.2.6 1.2 1.2s-.5 1.2-1.2 1.2zm-10 0h-4c-.7 0-1.2-.6-1.2-1.2s.6-1.2 1.2-1.2h4c.7 0 1.2.6 1.2 1.2s-.5 1.2-1.2 1.2zm-10 0h-4c-.7 0-1.2-.6-1.2-1.2s.6-1.2 1.2-1.2h4c.7 0 1.2.6 1.2 1.2s-.5 1.2-1.2 1.2zm-10 0h-4c-.7 0-1.2-.6-1.2-1.2s.6-1.2 1.2-1.2h4c.7 0 1.2.6 1.2 1.2s-.5 1.2-1.2 1.2zm-10 0h-4c-.7 0-1.2-.6-1.2-1.2s.6-1.2 1.2-1.2h4c.7 0 1.2.6 1.2 1.2s-.5 1.2-1.2 1.2zm-9.9 0h-4c-.7 0-1.2-.6-1.2-1.2s.6-1.2 1.2-1.2h4c.7 0 1.2.6 1.2 1.2s-.6 1.2-1.2 1.2zm-10 0h-4c-.7 0-1.2-.6-1.2-1.2s.6-1.2 1.2-1.2h4c.7 0 1.2.6 1.2 1.2s-.5 1.2-1.2 1.2zm-10 0h-4c-.7 0-1.2-.6-1.2-1.2s.6-1.2 1.2-1.2h4c.7 0 1.2.6 1.2 1.2s-.5 1.2-1.2 1.2zm-10 0h-4c-.7 0-1.2-.6-1.2-1.2s.6-1.2 1.2-1.2h4c.7 0 1.2.6 1.2 1.2s-.5 1.2-1.2 1.2zm-10 0h-4c-.7 0-1.2-.6-1.2-1.2s.6-1.2 1.2-1.2h4c.7 0 1.2.6 1.2 1.2s-.5 1.2-1.2 1.2zm-10 0h-4c-.7 0-1.2-.6-1.2-1.2s.6-1.2 1.2-1.2h4c.7 0 1.2.6 1.2 1.2s-.5 1.2-1.2 1.2zm-9.9 0h-4c-.7 0-1.2-.6-1.2-1.2s.6-1.2 1.2-1.2h4c.7 0 1.2.6 1.2 1.2s-.6 1.2-1.2 1.2zm-10 0h-4c-.7 0-1.2-.6-1.2-1.2s.6-1.2 1.2-1.2h4c.7 0 1.2.6 1.2 1.2s-.5 1.2-1.2 1.2zm-10 0h-4c-.7 0-1.2-.6-1.2-1.2s.6-1.2 1.2-1.2h4c.7 0 1.2.6 1.2 1.2s-.5 1.2-1.2 1.2zm-10 0h-4c-.7 0-1.2-.6-1.2-1.2s.6-1.2 1.2-1.2h4c.7 0 1.2.6 1.2 1.2s-.5 1.2-1.2 1.2zm-10 0h-4c-.7 0-1.2-.6-1.2-1.2s.6-1.2 1.2-1.2h4c.7 0 1.2.6 1.2 1.2s-.5 1.2-1.2 1.2zm-9.9 0h-4c-.7 0-1.2-.6-1.2-1.2s.6-1.2 1.2-1.2h4c.7 0 1.2.6 1.2 1.2s-.6 1.2-1.2 1.2zm-10 0h-4c-.7 0-1.2-.6-1.2-1.2s.6-1.2 1.2-1.2h4c.7 0 1.2.6 1.2 1.2s-.5 1.2-1.2 1.2zm-10 0h-4c-.7 0-1.2-.6-1.2-1.2s.6-1.2 1.2-1.2h4c.7 0 1.2.6 1.2 1.2s-.5 1.2-1.2 1.2zm-10 0h-4c-.7 0-1.2-.6-1.2-1.2s.6-1.2 1.2-1.2h4c.7 0 1.2.6 1.2 1.2s-.5 1.2-1.2 1.2zm-10 0h-4c-.7 0-1.2-.6-1.2-1.2s.6-1.2 1.2-1.2h4c.7 0 1.2.6 1.2 1.2s-.5 1.2-1.2 1.2zm-10 0h-4c-.7 0-1.2-.6-1.2-1.2s.6-1.2 1.2-1.2h4c.7 0 1.2.6 1.2 1.2s-.5 1.2-1.2 1.2zm-9.9 0h-4c-.7 0-1.2-.6-1.2-1.2s.6-1.2 1.2-1.2h4c.7 0 1.2.6 1.2 1.2s-.6 1.2-1.2 1.2zm-10 0h-4c-.7 0-1.2-.6-1.2-1.2s.6-1.2 1.2-1.2h4c.7 0 1.2.6 1.2 1.2s-.5 1.2-1.2 1.2zm-10 0h-4c-.7 0-1.2-.6-1.2-1.2s.6-1.2 1.2-1.2h4c.7 0 1.2.6 1.2 1.2s-.5 1.2-1.2 1.2zm-10 0h-4c-.7 0-1.2-.6-1.2-1.2s.6-1.2 1.2-1.2h4c.7 0 1.2.6 1.2 1.2s-.5 1.2-1.2 1.2zm-10 0h-4c-.7 0-1.2-.6-1.2-1.2s.6-1.2 1.2-1.2h4c.7 0 1.2.6 1.2 1.2s-.5 1.2-1.2 1.2zm-10 0h-4c-.7 0-1.2-.6-1.2-1.2s.6-1.2 1.2-1.2h4c.7 0 1.2.6 1.2 1.2s-.5 1.2-1.2 1.2zm-9.9 0h-4c-.7 0-1.2-.6-1.2-1.2s.6-1.2 1.2-1.2h4c.7 0 1.2.6 1.2 1.2s-.6 1.2-1.2 1.2zm446.8-354.7h-208.9l-42.6 59.5h294.1l-42.6-59.5z"/><path class="st2" d="M510.5 210.4h-294.1c-.5 0-.9-.3-1.1-.7s-.2-.9.1-1.3l42.6-59.5c.2-.3.6-.5 1-.5h208.9c.4 0 .8.2 1 .5l42.6 59.5c.3.4.3.9.1 1.3s-.6.7-1.1.7zm-291.7-2.5h289.3l-40.8-57h-207.7l-40.8 57z"/><path class="st1" d="M510.5 209.2h-294.1l-42.5 59.5h379.2l-42.6-59.5zM363.5 3.7l-104.5 146h208.9l-104.4-146zM553.1 268.7h-379.2l-42.6 59.5h464.4l-42.6-59.5zM595.7 328.2h-464.4l-42.6 59.5h549.5l-42.5-59.5z"/><path class="st2" d="M723.7 504.9l-358.4-500.9-1.8-2.5-233.2 325.9s-42.7 59.6-42.7 59.7l-84.3 117.8c-.3.4-.3.9-.1 1.3.2.4.6.7 1.1.7h718.4c.4 0 .8-.3 1.1-.7.2-.4.2-.9-.1-1.3zm-258.2-356.5h-204l102-142.6 102 142.6zm-205.8 2.5h207.7l40.8 57h-289.3l40.8-57zm-42.6 59.5h292.8l40.8 57h-374.4l40.8-57zm-42.6 59.5h378l40.8 57h-459.6l40.8-57zm-42.6 59.5h463.1l40.8 57h-544.7l40.8-57zm-125.2 175l82.7-115.5h548.3l82.7 115.5h-713.7z"/></g><g id="Layer_3"><path class="st2" d="M310.3 167.8v3.1h-10.2v5.5h9.2v3.1h-9.2v6h10.2v3.2h-13.6v-20.9h13.6zm12 9.2c-.5-.3-1.3-.5-2-.5-1.4 0-2.7.8-3 2.4v9.8h-3.4v-15.1h3.4v1.6c.6-1.1 1.9-1.9 3.4-1.9.7 0 1.4.1 1.7.3v3.4h-.1zm8 5.2l-1.4 1.4v5h-3.4v-22.1h3.4v13.2l5.9-6.2h4.4l-6.4 6.5 6.7 8.6h-4.1l-5.1-6.4zm23.5 1.7c-.5 3-2.7 5-6.4 5-4.2 0-7.1-3.2-7.1-7.9 0-4.5 3-7.9 7.1-7.9 4.2 0 6.6 3 6.6 7.4v1.2h-10.3c.1 2.7 1.6 4.2 3.8 4.2 1.6 0 2.9-.7 3.2-2.2h3.1v.2zm-10.1-4.5h6.8c0-1.8-1.1-3.3-3.2-3.3-1.8 0-3.2 1.1-3.6 3.3zm13.3-5.9h3.4v1.4c.8-1 2.3-1.8 4.1-1.8 3.4 0 5.3 2.3 5.3 5.6v9.8h-3.4v-9.2c0-1.9-.9-3.1-2.9-3.1-1.5 0-2.8.9-3.2 2.4v9.9h-3.3v-15zm16.9 0h3.4v1.4c.8-1 2.3-1.8 4.1-1.8 3.4 0 5.3 2.3 5.3 5.6v9.8h-3.4v-9.2c0-1.9-.9-3.1-2.9-3.1-1.5 0-2.8.9-3.2 2.4v9.9h-3.4v-15h.1zm18.5-2.4c-1.1 0-2.1-.9-2.1-2.1 0-1.2 1-2.1 2.1-2.1s2.1.9 2.1 2.1c0 1.1-1 2.1-2.1 2.1zm1.7 17.5h-3.4v-15.1h3.4v15.1zm4.2-15.1h3.4v1.4c.8-1 2.3-1.8 4.1-1.8 3.4 0 5.3 2.3 5.3 5.6v9.8h-3.4v-9.2c0-1.9-.9-3.1-2.9-3.1-1.5 0-2.8.9-3.2 2.4v9.9h-3.4v-15h.1zm26.6 13.4c-.7.8-2.1 1.6-3.8 1.6-4.5 0-7-3.7-7-7.6s2.5-7.6 7-7.6c1.7 0 3.2.7 3.8 1.6v-1.2h3.4v13.8c0 5.1-3.1 7.4-7.1 7.4-3.8 0-6.3-2-6.7-5.3h3.3c.3 1.7 1.5 2.5 3.4 2.5 2.5 0 3.7-1.5 3.7-4.4v-.8zm0-8.9c-.6-1-1.8-1.8-3.3-1.8-2.6 0-4.1 2-4.1 4.7s1.5 4.7 4.1 4.7c1.4 0 2.7-.8 3.3-1.8v-5.8zM347.8 100.3h-15.6v-2.5l11-15.3h-10.8v-3.1h15.3v2.4l-11 15.3h11.2v3.2h-.1zm15.9-4.7c-.5 3-2.7 5-6.4 5-4.2 0-7.1-3.2-7.1-7.9 0-4.5 3-7.9 7.1-7.9 4.2 0 6.6 3 6.6 7.4v1.2h-10.3c.1 2.7 1.6 4.2 3.8 4.2 1.6 0 2.9-.7 3.2-2.2h3.1v.2zm-10.1-4.5h6.8c0-1.8-1.1-3.3-3.2-3.3-1.8-.1-3.2 1.1-3.6 3.3zm16.7 9.2h-3.4v-22.1h3.4v22.1zm12.6-19c-.5-.3-1.1-.5-1.7-.5-1.4 0-2.2.8-2.2 2.3v2.1h3.3v2.8h-3.3v12.3h-3.3v-12.3h-2.6v-2.8h2.6v-2.3c0-3.2 2.1-5 5-5 1 0 1.6.1 2.2.4v3zm1.7 8.5h8.2v3.1h-8.2v-3.1zm-72.9 27.6c-.5-.3-1.3-.5-2-.5-1.4 0-2.7.8-3 2.4v9.8h-3.4v-15.1h3.4v1.6c.6-1.1 1.9-1.9 3.4-1.9.7 0 1.4.1 1.7.3v3.4h-.1zm15.1 7c-.5 3-2.7 5-6.4 5-4.2 0-7.1-3.2-7.1-7.9 0-4.5 3-7.9 7.1-7.9 4.2 0 6.6 3 6.6 7.4v1.2h-10.3c.1 2.7 1.6 4.2 3.8 4.2 1.6 0 2.9-.7 3.2-2.2h3.1v.2zm-10.1-4.5h6.8c0-1.8-1.1-3.3-3.2-3.3-1.8-.1-3.2 1.1-3.6 3.3zm21.7 9.2v-.8c-.5.5-2 1.1-3.7 1.1-3.1 0-5.6-1.8-5.6-4.9 0-2.9 2.5-4.9 5.9-4.9 1.4 0 2.9.5 3.5.9v-1.2c0-1.5-1-2.7-2.9-2.7-1.4 0-2.2.6-2.6 1.6h-3.3c.4-2.6 2.8-4.5 5.9-4.5 3.8 0 6.1 2.1 6.1 5.5v9.9h-3.3zm0-5.3c-.4-1-1.7-1.5-3.1-1.5-1.5 0-3.1.6-3.1 2.1s1.6 2.2 3.1 2.2c1.4 0 2.7-.6 3.1-1.5v-1.3zm10.7 5.3h-3.4v-22.1h3.4v22.1zm5.9-17.6c-1.1 0-2.1-.9-2.1-2.1s1-2.1 2.1-2.1 2.1.9 2.1 2.1-1 2.1-2.1 2.1zm1.7 17.6h-3.4v-15.1h3.4v15.1zm6.6-4.4c.4 1.3 1.5 1.9 3 1.9 1.6 0 2.6-.6 2.6-1.8 0-.8-.5-1.3-1.8-1.6l-3.1-.7c-2.1-.5-3.7-1.7-3.7-4.1 0-2.7 2.4-4.7 5.7-4.7 3.5 0 5.5 1.7 6.1 4.5h-3.3c-.3-1-1.2-1.7-2.8-1.7-1.2 0-2.4.5-2.4 1.7 0 .7.5 1.1 1.6 1.4l3.2.7c2.6.6 3.9 2.1 3.9 4.3 0 3-2.5 4.8-5.9 4.8-3.5 0-6-1.8-6.4-4.7h3.3zm20.6 4.4v-.8c-.5.5-2 1.1-3.7 1.1-3.1 0-5.6-1.8-5.6-4.9 0-2.9 2.5-4.9 5.9-4.9 1.4 0 2.9.5 3.5.9v-1.2c0-1.5-1-2.7-2.9-2.7-1.4 0-2.2.6-2.6 1.6h-3.3c.4-2.6 2.8-4.5 5.9-4.5 3.8 0 6.1 2.1 6.1 5.5v9.9h-3.3zm0-5.3c-.4-1-1.7-1.5-3.1-1.5-1.5 0-3.1.6-3.1 2.1s1.6 2.2 3.1 2.2c1.4 0 2.7-.6 3.1-1.5v-1.3zm7.9-7h-2.4v-2.8h2.4v-4h3.4v4h3.4v2.8h-3.4v7.8c0 1.2.7 1.8 1.8 1.8.7 0 1.5-.3 1.9-.6v3.1c-.6.3-1.5.5-2.5.5-2.7 0-4.6-1.4-4.6-4.4v-8.2zm12.3-5.3c-1.1 0-2.1-.9-2.1-2.1s1-2.1 2.1-2.1 2.1.9 2.1 2.1-1 2.1-2.1 2.1zm1.7 17.6h-3.4v-15.1h3.4v15.1zm16.6-4.7c-.5 3-2.7 5-6.4 5-4.2 0-7.1-3.2-7.1-7.9 0-4.5 3-7.9 7.1-7.9 4.2 0 6.6 3 6.6 7.4v1.2h-10.3c.1 2.7 1.6 4.2 3.8 4.2 1.6 0 2.9-.7 3.2-2.2h3.1v.2zm-10-4.5h6.8c0-1.8-1.1-3.3-3.2-3.3-1.8-.1-3.2 1.1-3.6 3.3zM254.8 243.2c.7 2.1 2.4 3.1 4.7 3.1 2.4 0 4-1.2 4-3.1 0-1.5-.9-2.3-3-2.8l-3.5-.8c-2.9-.7-5.2-2.2-5.2-5.6 0-3.5 2.9-6.2 7.1-6.2 4.5 0 7.2 2.3 7.9 5.8h-3.5c-.5-1.6-1.9-2.8-4.4-2.8-2.2 0-3.8 1.2-3.8 2.9 0 1.4.9 2.3 2.8 2.7l3.6.8c3.3.7 5.4 2.7 5.4 5.8 0 3.9-3.1 6.3-7.4 6.3-4.4 0-7.6-2.2-8.3-6.1h3.6zm21.7 6.1c-4.2 0-7.2-3.3-7.2-7.9 0-4.6 2.9-7.9 7.2-7.9s7.2 3.3 7.2 7.9c0 4.6-2.9 7.9-7.2 7.9zm0-12.8c-2.4 0-3.8 2.1-3.8 5s1.3 5 3.8 5 3.8-2.1 3.8-5-1.3-5-3.8-5zm16.4-3c3.6 0 5.9 2 6.3 5.1h-3.4c-.3-1.4-1.4-2.1-2.9-2.1-2.3 0-3.7 2.1-3.7 4.9 0 2.9 1.4 4.9 3.7 4.9 1.5 0 2.6-.7 2.9-2.1h3.4c-.4 3-2.7 5.1-6.3 5.1-4.1 0-7-3.2-7-7.9s3-7.9 7-7.9zm11.1-2.1c-1.1 0-2.1-.9-2.1-2.1 0-1.2 1-2.1 2.1-2.1s2.1.9 2.1 2.1c0 1.2-1 2.1-2.1 2.1zm1.7 17.6h-3.4v-15.1h3.4v15.1zm12.6 0v-.8c-.5.5-2 1.1-3.7 1.1-3.1 0-5.6-1.8-5.6-4.9 0-2.9 2.5-4.9 5.9-4.9 1.4 0 2.9.5 3.5.9v-1.2c0-1.5-1-2.7-2.9-2.7-1.4 0-2.2.6-2.6 1.6h-3.3c.4-2.6 2.8-4.5 5.9-4.5 3.8 0 6.1 2.1 6.1 5.5v9.9h-3.3zm0-5.3c-.4-1-1.7-1.5-3.1-1.5-1.5 0-3.1.6-3.1 2.1s1.6 2.2 3.1 2.2c1.4 0 2.7-.6 3.1-1.5v-1.3zm10.6 5.3h-3.4v-22.1h3.4v22.1zm16.7-4.7c-.5 3-2.7 5-6.4 5-4.2 0-7.1-3.2-7.1-7.9 0-4.5 3-7.9 7.1-7.9 4.2 0 6.6 3 6.6 7.4v1.2h-10.3c.1 2.7 1.6 4.2 3.8 4.2 1.6 0 2.9-.7 3.2-2.2h3.1v.2zm-10.1-4.6h6.8c0-1.8-1.1-3.3-3.2-3.3-1.8 0-3.2 1.1-3.6 3.3zm24.3 9.3h-3.4v-22.1h3.4v8.3c.7-.8 2.2-1.6 3.8-1.6 4.4 0 7 3.6 7 7.9 0 4.4-2.6 7.9-7 7.9-1.7 0-3.2-.8-3.8-1.6v1.2zm0-4.7c.6 1.2 1.9 2 3.3 2 2.6 0 4.2-2.1 4.2-4.9 0-2.8-1.6-4.9-4.2-4.9-1.4 0-2.7.8-3.3 2v5.8zm26.5 0c-.5 3-2.7 5-6.4 5-4.2 0-7.1-3.2-7.1-7.9 0-4.5 3-7.9 7.1-7.9 4.2 0 6.6 3 6.6 7.4v1.2h-10.3c.1 2.7 1.6 4.2 3.8 4.2 1.6 0 2.9-.7 3.2-2.2h3.1v.2zm-10-4.6h6.8c0-1.8-1.1-3.3-3.2-3.3-1.8 0-3.2 1.1-3.6 3.3zm13.3-12.8h3.4v8.4c.8-1 2.3-1.8 4.1-1.8 3.4 0 5.3 2.3 5.3 5.6v9.8h-3.4v-9.2c0-1.9-.9-3.1-2.9-3.1-1.5 0-2.8.9-3.2 2.4v9.9h-3.4v-22h.1zm22.9 22.4c-4.2 0-7.2-3.3-7.2-7.9 0-4.6 2.9-7.9 7.2-7.9 4.2 0 7.2 3.3 7.2 7.9 0 4.6-2.9 7.9-7.2 7.9zm0-12.8c-2.4 0-3.8 2.1-3.8 5s1.3 5 3.8 5c2.4 0 3.8-2.1 3.8-5s-1.3-5-3.8-5zm22.9 7.8c-.5 3-2.7 5-6.4 5-4.2 0-7.1-3.2-7.1-7.9 0-4.5 3-7.9 7.1-7.9 4.2 0 6.6 3 6.6 7.4v1.2h-10.3c.1 2.7 1.6 4.2 3.8 4.2 1.6 0 2.9-.7 3.2-2.2h3.1v.2zm-10-4.6h6.8c0-1.8-1.1-3.3-3.2-3.3-1.8 0-3.2 1.1-3.6 3.3zm21.6-9.8c-.5-.3-1.1-.5-1.7-.5-1.4 0-2.2.8-2.2 2.3v2.1h3.3v2.8h-3.3v12.4h-3.3v-12.3h-2.6v-2.8h2.6v-2.3c0-3.2 2.1-5 5-5 1 0 1.6.1 2.2.4v2.9zm3.3 6.8h-2.4v-2.8h2.4v-4h3.4v4h3.4v2.8h-3.4v7.8c0 1.2.7 1.8 1.8 1.8.7 0 1.5-.3 1.9-.6v3.1c-.6.3-1.5.5-2.5.5-2.7 0-4.6-1.4-4.6-4.4v-8.2zm22.8 7.6c-.5 3-2.7 5-6.4 5-4.2 0-7.1-3.2-7.1-7.9 0-4.5 3-7.9 7.1-7.9 4.2 0 6.6 3 6.6 7.4v1.2h-10.3c.1 2.7 1.6 4.2 3.8 4.2 1.6 0 2.9-.7 3.2-2.2h3.1v.2zm-10-4.6h6.8c0-1.8-1.1-3.3-3.2-3.3-1.8 0-3.2 1.1-3.6 3.3zM215.2 309.3l-7.9-20.9h3.7l5.9 16.3 5.9-16.3h3.6l-7.9 20.9h-3.3zm24.8-4.7c-.5 3-2.7 5-6.4 5-4.2 0-7.1-3.2-7.1-7.9 0-4.5 3-7.9 7.1-7.9 4.2 0 6.6 3 6.6 7.4v1.2h-10.3c.1 2.7 1.6 4.2 3.8 4.2 1.6 0 2.9-.7 3.2-2.2h3.1v.2zm-10-4.5h6.8c0-1.8-1.1-3.3-3.2-3.3-1.8-.1-3.2 1.1-3.6 3.3zm15-8.4c-1.1 0-2.1-.9-2.1-2.1s1-2.1 2.1-2.1 2.1.9 2.1 2.1-1 2.1-2.1 2.1zm1.7 17.6h-3.4v-15.1h3.4v15.1zm7.6 0h-3.4v-22.1h3.4v22.1zm5.9-17.6c-1.1 0-2.1-.9-2.1-2.1s1-2.1 2.1-2.1 2.1.9 2.1 2.1-.9 2.1-2.1 2.1zm1.7 17.6h-3.4v-15.1h3.4v15.1zm14-1.7c-.7.8-2.1 1.6-3.8 1.6-4.5 0-7-3.7-7-7.6s2.5-7.6 7-7.6c1.7 0 3.2.7 3.8 1.6v-1.2h3.4v13.6c0 5.1-3.1 7.4-7.1 7.4-3.8 0-6.3-2-6.7-5.3h3.3c.3 1.7 1.5 2.5 3.4 2.5 2.5 0 3.7-1.5 3.7-4.4v-.6zm0-8.9c-.6-1-1.8-1.8-3.3-1.8-2.6 0-4.1 2-4.1 4.7s1.5 4.7 4.1 4.7c1.4 0 2.7-.8 3.3-1.8v-5.8zm7.7-11.5h3.4v8.4c.8-1 2.3-1.8 4.1-1.8 3.4 0 5.3 2.3 5.3 5.6v9.8h-3.4v-9.2c0-1.9-.9-3.1-2.9-3.1-1.5 0-2.8.9-3.2 2.4v9.9h-3.4v-22h.1zm29.2 17.4c-.5 3-2.7 5-6.4 5-4.2 0-7.1-3.2-7.1-7.9 0-4.5 3-7.9 7.1-7.9 4.2 0 6.6 3 6.6 7.4v1.2h-10.3c.1 2.7 1.6 4.2 3.8 4.2 1.6 0 2.9-.7 3.2-2.2h3.1v.2zm-10-4.5h6.8c0-1.8-1.1-3.3-3.2-3.3-1.8-.1-3.2 1.1-3.6 3.3zm15-8.4c-1.1 0-2.1-.9-2.1-2.1s1-2.1 2.1-2.1 2.1.9 2.1 2.1-1 2.1-2.1 2.1zm1.7 17.6h-3.4v-15.1h3.4v15.1zm14-1.3c-.7.8-2.2 1.6-3.8 1.6-4.4 0-7-3.5-7-7.9 0-4.3 2.6-7.9 7-7.9 1.7 0 3.2.8 3.8 1.6v-8.3h3.4v22.1h-3.4v-1.2zm0-9.1c-.6-1.2-1.9-2-3.3-2-2.6 0-4.2 2.1-4.2 4.9s1.6 4.9 4.2 4.9c1.4 0 2.7-.8 3.3-2v-5.8zm27.6 5.7c-.5 3-2.7 5-6.4 5-4.2 0-7.1-3.2-7.1-7.9 0-4.5 3-7.9 7.1-7.9 4.2 0 6.6 3 6.6 7.4v1.2h-10.3c.1 2.7 1.6 4.2 3.8 4.2 1.6 0 2.9-.7 3.2-2.2h3.1v.2zm-10.1-4.5h6.8c0-1.8-1.1-3.3-3.2-3.3-1.8-.1-3.2 1.1-3.6 3.3zm13.3-5.9h3.4v1.4c.8-1 2.3-1.8 4.1-1.8 3.4 0 5.3 2.3 5.3 5.6v9.8h-3.4v-9.2c0-1.9-.9-3.1-2.9-3.1-1.5 0-2.8.9-3.2 2.4v9.9h-3.4v-15h.1zm36 15.1h-12.3v-2.1l7.8-10.1h-7.4v-2.8h11.8v2.1l-7.7 10.1h7.9l-.1 2.8zm16-4.7c-.5 3-2.7 5-6.4 5-4.2 0-7.1-3.2-7.1-7.9 0-4.5 3-7.9 7.1-7.9 4.2 0 6.6 3 6.6 7.4v1.2h-10.3c.1 2.7 1.6 4.2 3.8 4.2 1.6 0 2.9-.7 3.2-2.2h3.1v.2zm-10.1-4.5h6.8c0-1.8-1.1-3.3-3.2-3.3-1.8-.1-3.2 1.1-3.6 3.3zm18.1 2.8l-1.4 1.4v5h-3.4v-22.1h3.4v13.2l5.9-6.2h4.4l-6.4 6.5 6.7 8.6h-4.1l-5.1-6.4zm23.5 1.7c-.5 3-2.7 5-6.4 5-4.2 0-7.1-3.2-7.1-7.9 0-4.5 3-7.9 7.1-7.9 4.2 0 6.6 3 6.6 7.4v1.2h-10.3c.1 2.7 1.6 4.2 3.8 4.2 1.6 0 2.9-.7 3.2-2.2h3.1v.2zm-10.1-4.5h6.8c0-1.8-1.1-3.3-3.2-3.3-1.8-.1-3.1 1.1-3.6 3.3zm21.8-2.5c-.5-.3-1.3-.5-2-.5-1.4 0-2.7.8-3 2.4v9.8h-3.4v-15.1h3.4v1.6c.6-1.1 1.9-1.9 3.4-1.9.7 0 1.4.1 1.7.3v3.4h-.1zm3.1-10.4h3.4v8.4c.8-1 2.3-1.8 4.1-1.8 3.4 0 5.3 2.3 5.3 5.6v9.8h-3.4v-9.2c0-1.9-.9-3.1-2.9-3.1-1.5 0-2.8.9-3.2 2.4v9.9h-3.4v-22h.1zm29.3 17.4c-.5 3-2.7 5-6.4 5-4.2 0-7.1-3.2-7.1-7.9 0-4.5 3-7.9 7.1-7.9 4.2 0 6.6 3 6.6 7.4v1.2h-10.3c.1 2.7 1.6 4.2 3.8 4.2 1.6 0 2.9-.7 3.2-2.2h3.1v.2zm-10.1-4.5h6.8c0-1.8-1.1-3.3-3.2-3.3-1.8-.1-3.2 1.1-3.6 3.3zm15.1-8.4c-1.1 0-2.1-.9-2.1-2.1s1-2.1 2.1-2.1 2.1.9 2.1 2.1-1 2.1-2.1 2.1zm1.7 17.6h-3.4v-15.1h3.4v15.1zm14-1.3c-.7.8-2.2 1.6-3.8 1.6-4.4 0-7-3.5-7-7.9 0-4.3 2.6-7.9 7-7.9 1.7 0 3.2.8 3.8 1.6v-8.3h3.4v22.1h-3.4v-1.2zm0-9.1c-.6-1.2-1.9-2-3.3-2-2.6 0-4.2 2.1-4.2 4.9s1.6 4.9 4.2 4.9c1.4 0 2.7-.8 3.3-2v-5.8zM163.3 361.8v7.8h-3.5v-20.9h8.1c4.3 0 7.1 2.2 7.1 6.6 0 4.2-2.8 6.5-7.1 6.5h-4.6zm4.5-10h-4.5v7h4.5c2.4 0 3.7-1.5 3.7-3.5 0-2.1-1.2-3.5-3.7-3.5zm18.8 6.2c-.5-.3-1.3-.5-2-.5-1.4 0-2.7.8-3 2.4v9.8h-3.4v-15.1h3.4v1.6c.6-1.1 1.9-1.9 3.4-1.9.7 0 1.4.1 1.7.3l-.1 3.4zm4.8-5.9c-1.1 0-2.1-.9-2.1-2.1s1-2.1 2.1-2.1 2.1.9 2.1 2.1c0 1.1-1 2.1-2.1 2.1zm1.7 17.5h-3.4v-15.1h3.4v15.1zm19.9-15.4c3.1 0 4.9 2.2 4.9 5.6v9.8h-3.4v-9.3c0-1.9-.8-3.1-2.5-3.1-1.2 0-2.4.7-2.7 2.2v10.1h-3.4v-9.3c0-1.9-.8-3.1-2.5-3.1-1.2 0-2.4.7-2.7 2.2v10.1h-3.4v-15.1h3.4v1.3c.7-1 2.1-1.6 3.8-1.6s3.2.8 4 2c1-1 2.4-1.8 4.5-1.8zm17.3 15.4v-.8c-.5.5-2 1.1-3.7 1.1-3.1 0-5.6-1.8-5.6-4.9 0-2.9 2.5-4.9 5.9-4.9 1.4 0 2.9.5 3.5.9v-1.2c0-1.5-1-2.7-2.9-2.7-1.4 0-2.2.6-2.6 1.6h-3.3c.4-2.6 2.8-4.5 5.9-4.5 3.8 0 6.1 2.1 6.1 5.5v9.9h-3.3zm0-5.2c-.4-1-1.7-1.5-3.1-1.5-1.5 0-3.1.6-3.1 2.1s1.6 2.2 3.1 2.2c1.4 0 2.7-.6 3.1-1.5v-1.3zm8.9-12.3c-1.1 0-2.1-.9-2.1-2.1s1-2.1 2.1-2.1 2.1.9 2.1 2.1c0 1.1-1 2.1-2.1 2.1zm1.7 17.5h-3.4v-15.1h3.4v15.1zm12.6-11.6c-.5-.3-1.3-.5-2-.5-1.4 0-2.7.8-3 2.4v9.8h-3.4v-15.1h3.4v1.6c.6-1.1 1.9-1.9 3.4-1.9.7 0 1.4.1 1.7.3l-.1 3.4zm15.1 6.9c-.5 3-2.7 5-6.4 5-4.2 0-7.1-3.2-7.1-7.9 0-4.5 3-7.9 7.1-7.9 4.2 0 6.6 3 6.6 7.4v1.2h-10.3c.1 2.7 1.6 4.2 3.8 4.2 1.6 0 2.9-.7 3.2-2.2h3.1v.2zm-10.1-4.5h6.8c0-1.8-1.1-3.3-3.2-3.3-1.7 0-3.1 1.1-3.6 3.3zm24.3 9.2h-3.4v-22.1h3.4v8.3c.7-.8 2.2-1.6 3.8-1.6 4.4 0 7 3.6 7 7.9 0 4.4-2.6 7.9-7 7.9-1.7 0-3.2-.8-3.8-1.6v1.2zm0-4.7c.6 1.2 1.9 2 3.3 2 2.6 0 4.2-2.1 4.2-4.9s-1.6-4.9-4.2-4.9c-1.4 0-2.7.8-3.3 2v5.8zm15.7-12.8c-1.1 0-2.1-.9-2.1-2.1s1-2.1 2.1-2.1 2.1.9 2.1 2.1c0 1.1-1 2.1-2.1 2.1zm1.7 17.5h-3.4v-15.1h3.4v15.1zm10.3.4c-4.2 0-7.2-3.3-7.2-7.9s2.9-7.9 7.2-7.9 7.2 3.3 7.2 7.9-2.9 7.9-7.2 7.9zm0-12.9c-2.4 0-3.8 2.1-3.8 5s1.3 5 3.8 5 3.8-2.1 3.8-5-1.3-5-3.8-5zm13.8 12.5h-3.4v-22.1h3.4v22.1zm10.3.4c-4.2 0-7.2-3.3-7.2-7.9s2.9-7.9 7.2-7.9 7.2 3.3 7.2 7.9-2.9 7.9-7.2 7.9zm0-12.9c-2.4 0-3.8 2.1-3.8 5s1.3 5 3.8 5 3.8-2.1 3.8-5-1.3-5-3.8-5zm20.2 10.8c-.7.8-2.1 1.6-3.8 1.6-4.5 0-7-3.7-7-7.6s2.5-7.6 7-7.6c1.7 0 3.2.7 3.8 1.6v-1.2h3.4v13.8c0 5.1-3.1 7.4-7.1 7.4-3.8 0-6.3-2-6.7-5.3h3.3c.3 1.7 1.5 2.5 3.4 2.5 2.5 0 3.7-1.5 3.7-4.4v-.8zm0-8.9c-.6-1-1.8-1.8-3.3-1.8-2.6 0-4.1 2-4.1 4.7s1.5 4.7 4.1 4.7c1.4 0 2.7-.8 3.3-1.8v-5.8zm9.4-6.9c-1.1 0-2.1-.9-2.1-2.1s1-2.1 2.1-2.1 2.1.9 2.1 2.1c0 1.1-1 2.1-2.1 2.1zm1.7 17.5h-3.4v-15.1h3.4v15.1zm6.6-4.3c.4 1.3 1.5 1.9 3 1.9 1.6 0 2.6-.6 2.6-1.8 0-.8-.5-1.3-1.8-1.6l-3.1-.7c-2.1-.5-3.7-1.7-3.7-4.1 0-2.7 2.4-4.7 5.7-4.7 3.5 0 5.5 1.7 6.1 4.5h-3.3c-.3-1-1.2-1.7-2.8-1.7-1.2 0-2.4.5-2.4 1.7 0 .7.5 1.1 1.6 1.4l3.2.7c2.6.6 3.9 2.1 3.9 4.3 0 3-2.5 4.8-5.9 4.8-3.5 0-6-1.8-6.4-4.7h3.3zm18.1-11.1c3.6 0 5.9 2 6.3 5.1h-3.4c-.3-1.4-1.4-2.1-2.9-2.1-2.3 0-3.7 2.1-3.7 4.9 0 2.9 1.4 4.9 3.7 4.9 1.5 0 2.6-.7 2.9-2.1h3.4c-.4 3-2.7 5.1-6.3 5.1-4.1 0-7-3.2-7-7.9s3-7.9 7-7.9zm9.4-6.7h3.4v8.4c.8-1 2.3-1.8 4.1-1.8 3.4 0 5.3 2.3 5.3 5.6v9.8h-3.4v-9.2c0-1.9-.9-3.1-2.9-3.1-1.5 0-2.8.9-3.2 2.4v9.9h-3.3v-22zm29.3 17.4c-.5 3-2.7 5-6.4 5-4.2 0-7.1-3.2-7.1-7.9 0-4.5 3-7.9 7.1-7.9 4.2 0 6.6 3 6.6 7.4v1.2h-10.3c.1 2.7 1.6 4.2 3.8 4.2 1.6 0 2.9-.7 3.2-2.2h3.1v.2zm-10.1-4.5h6.8c0-1.8-1.1-3.3-3.2-3.3-1.8 0-3.2 1.1-3.6 3.3zm24.2 9.2h-3.4v-22.1h3.4v8.3c.7-.8 2.2-1.6 3.8-1.6 4.4 0 7 3.6 7 7.9 0 4.4-2.6 7.9-7 7.9-1.7 0-3.2-.8-3.8-1.6v1.2zm0-4.7c.6 1.2 1.9 2 3.3 2 2.6 0 4.2-2.1 4.2-4.9s-1.6-4.9-4.2-4.9c-1.4 0-2.7.8-3.3 2v5.8zm26.6 0c-.5 3-2.7 5-6.4 5-4.2 0-7.1-3.2-7.1-7.9 0-4.5 3-7.9 7.1-7.9 4.2 0 6.6 3 6.6 7.4v1.2h-10.3c.1 2.7 1.6 4.2 3.8 4.2 1.6 0 2.9-.7 3.2-2.2h3.1v.2zm-10.1-4.5h6.8c0-1.8-1.1-3.3-3.2-3.3-1.8 0-3.2 1.1-3.6 3.3zm13.4-12.9h3.4v8.4c.8-1 2.3-1.8 4.1-1.8 3.4 0 5.3 2.3 5.3 5.6v9.8h-3.4v-9.2c0-1.9-.9-3.1-2.9-3.1-1.5 0-2.8.9-3.2 2.4v9.9h-3.4v-22h.1zm22.9 22.5c-4.2 0-7.2-3.3-7.2-7.9s2.9-7.9 7.2-7.9c4.2 0 7.2 3.3 7.2 7.9s-2.9 7.9-7.2 7.9zm0-12.9c-2.4 0-3.8 2.1-3.8 5s1.3 5 3.8 5c2.4 0 3.8-2.1 3.8-5s-1.3-5-3.8-5zm22.9 7.8c-.5 3-2.7 5-6.4 5-4.2 0-7.1-3.2-7.1-7.9 0-4.5 3-7.9 7.1-7.9 4.2 0 6.6 3 6.6 7.4v1.2h-10.3c.1 2.7 1.6 4.2 3.8 4.2 1.6 0 2.9-.7 3.2-2.2h3.1v.2zm-10.1-4.5h6.8c0-1.8-1.1-3.3-3.2-3.3-1.8 0-3.2 1.1-3.6 3.3zm21.7-9.8c-.5-.3-1.1-.5-1.7-.5-1.4 0-2.2.8-2.2 2.3v2.1h3.3v2.8h-3.3v12.3h-3.3v-12.3h-2.6v-2.8h2.6v-2.3c0-3.2 2.1-5 5-5 1 0 1.6.1 2.2.4v3zm3.2 6.8h-2.4v-2.8h2.4v-4h3.4v4h3.4v2.8h-3.4v7.8c0 1.2.7 1.8 1.8 1.8.7 0 1.5-.3 1.9-.6v3.1c-.6.3-1.5.5-2.5.5-2.7 0-4.6-1.4-4.6-4.4v-8.2zm22.9 7.5c-.5 3-2.7 5-6.4 5-4.2 0-7.1-3.2-7.1-7.9 0-4.5 3-7.9 7.1-7.9 4.2 0 6.6 3 6.6 7.4v1.2h-10.3c.1 2.7 1.6 4.2 3.8 4.2 1.6 0 2.9-.7 3.2-2.2h3.1v.2zm-10.1-4.5h6.8c0-1.8-1.1-3.3-3.2-3.3-1.8 0-3.2 1.1-3.6 3.3zm13.4-5.9h3.4v1.4c.8-1 2.3-1.8 4.1-1.8 3.4 0 5.3 2.3 5.3 5.6v9.8h-3.4v-9.2c0-1.9-.9-3.1-2.9-3.1-1.5 0-2.8.9-3.2 2.4v9.9h-3.4v-15h.1z"/><path class="st1" d="M325.6 419.1l13 47.7 12.8-47.7h4.5l-15.1 55.5h-4.2l-13.1-47.3-13 47.3h-4.1l-15.2-55.5h4.6l12.8 47.7 13-47.7h4zm41 6.2c-1.7 0-3.1-1.4-3.1-3.1 0-1.6 1.4-3.1 3.1-3.1s3.1 1.4 3.1 3.1c0 1.8-1.4 3.1-3.1 3.1zm2.3 49.3h-4.5v-40.1h4.5v40.1zm13.5 0v-55.5h32.2v4.2h-27.6v21.1h26.1v4.2h-26.1v25.9l-4.6.1zm44.3-49.3c-1.7 0-3.1-1.4-3.1-3.1 0-1.6 1.4-3.1 3.1-3.1s3.1 1.4 3.1 3.1c0 1.8-1.4 3.1-3.1 3.1zm2.3 49.3h-4.5v-40.1h4.5v40.1z"/></g></svg>