<svg xmlns="http://www.w3.org/2000/svg" xmlns:xlink="http://www.w3.org/1999/xlink" viewBox="0 0 640 480" enable-background="new 0 0 640 480"><style type="text/css">.st0{fill:#2A2A2A;} .st1{fill-rule:evenodd;clip-rule:evenodd;fill:#FFC300;} .st2{fill:#FFFFFF;} .st3{fill:none;} .st4{clip-path:url(#SVGID_2_);fill:#FFC103;} .st5{fill:none;stroke:#FFFFFF;stroke-width:1.5;stroke-miterlimit:10;} .st6{clip-path:url(#SVGID_4_);fill:#FFFFFF;} .st7{clip-path:url(#SVGID_6_);fill:#FFC103;} .st8{clip-path:url(#SVGID_8_);fill:#FFFFFF;} .st9{clip-path:url(#SVGID_10_);fill:#FFFFFF;} .st10{clip-path:url(#SVGID_12_);fill:#FFC103;}</style><symbol id="Veilig_x2F__Cell_x2F__Selected" viewBox="-19.5 -23.5 39 47"><path class="st0" d="M-19.5-23.5h39v47h-39z"/><path class="st1" d="M-1.3-2.2l7.1 7.1 1.7-1.7-8.8-8.8-.3.3-5.7 5.6 1.7 1.7 4.3-4.2z"/></symbol><symbol id="veilig_x2F__cell_x2F__empty" viewBox="-19.5 -23.5 39 47"><path class="st0" d="M-19.5-23.5h39v47h-39z"/></symbol><g id="row_3_"><use xlink:href="#Veilig_x2F__Cell_x2F__Selected" width="39" height="47" x="-19.5" y="-23.5" transform="matrix(1 0 0 -1 444.71 361.844)" overflow="visible"/><use xlink:href="#veilig_x2F__cell_x2F__empty" width="39" height="47" x="-19.5" y="-23.5" transform="matrix(1 0 0 -1 397.828 361.844)" overflow="visible"/><use xlink:href="#veilig_x2F__cell_x2F__empty" width="39" height="47" x="-19.5" y="-23.5" transform="matrix(1 0 0 -1 350.946 361.844)" overflow="visible"/><use xlink:href="#Veilig_x2F__Cell_x2F__Selected" width="39" height="47" x="-19.5" y="-23.5" transform="matrix(1 0 0 -1 304.064 361.844)" overflow="visible"/></g><g id="row_2_"><use xlink:href="#veilig_x2F__cell_x2F__empty" width="39" height="47" x="-19.5" y="-23.5" transform="matrix(1 0 0 -1 444.71 306.94)" overflow="visible"/><use xlink:href="#Veilig_x2F__Cell_x2F__Selected" width="39" height="47" x="-19.5" y="-23.5" transform="matrix(1 0 0 -1 397.828 306.94)" overflow="visible"/><use xlink:href="#Veilig_x2F__Cell_x2F__Selected" width="39" height="47" x="-19.5" y="-23.5" transform="matrix(1 0 0 -1 350.946 306.94)" overflow="visible"/><use xlink:href="#Veilig_x2F__Cell_x2F__Selected" width="39" height="47" x="-19.5" y="-23.5" transform="matrix(1 0 0 -1 304.064 306.94)" overflow="visible"/></g><g id="row_1_"><use xlink:href="#veilig_x2F__cell_x2F__empty" width="39" height="47" x="-19.5" y="-23.5" transform="matrix(1 0 0 -1 444.71 252.036)" overflow="visible"/><use xlink:href="#veilig_x2F__cell_x2F__empty" width="39" height="47" x="-19.5" y="-23.5" transform="matrix(1 0 0 -1 397.828 252.036)" overflow="visible"/><use xlink:href="#Veilig_x2F__Cell_x2F__Selected" width="39" height="47" x="-19.5" y="-23.5" transform="matrix(1 0 0 -1 350.946 252.036)" overflow="visible"/><use xlink:href="#Veilig_x2F__Cell_x2F__Selected" width="39" height="47" x="-19.5" y="-23.5" transform="matrix(1 0 0 -1 304.064 252.036)" overflow="visible"/></g><g id="row"><use xlink:href="#veilig_x2F__cell_x2F__empty" width="39" height="47" x="-19.5" y="-23.5" transform="matrix(1 0 0 -2.748 444.71 155.566)" overflow="visible"/><use xlink:href="#veilig_x2F__cell_x2F__empty" width="39" height="47" x="-19.5" y="-23.5" transform="matrix(1 0 0 -2.748 397.828 155.566)" overflow="visible"/><use xlink:href="#veilig_x2F__cell_x2F__empty" width="39" height="47" x="-19.5" y="-23.5" transform="matrix(1 0 0 -2.748 350.946 155.566)" overflow="visible"/><use xlink:href="#veilig_x2F__cell_x2F__empty" width="39" height="47" x="-19.5" y="-23.5" transform="matrix(1 0 0 -2.748 304.064 155.566)" overflow="visible"/></g><g id="col_1"><g id="malware"><path class="st2" d="M228.1 254.7l-1.6-6.8h-2.6v8.6h1.7v-7.2l1.6 7.2h1.8l1.6-7.2v7.199999999999999h1.7v-8.6h-2.6l-1.6 6.8zm9.3-.6c0 .6-.2.9-.5 1.2s-.6.3-1 .3c-.2 0-.4-.1-.6-.2-.2-.1-.2-.3-.2-.6s.1-.6.4-.7c.2-.1.4-.2.8-.2l.4-.1c.2 0 .3-.1.4-.1.1 0 .2-.1.3-.2v.6zm-1.6-1.3c-.6.1-1.1.2-1.5.4-.6.4-.9.9-.9 1.7 0 .6.2 1.1.6 1.4.4.3.9.5 1.4.5.5 0 .9-.1 1.2-.3.3-.2.6-.4.8-.6v.4c0 .1.1.2.1.4h1.8v-.2c-.1-.1-.2-.1-.2-.2-.1-.1-.1-.2-.1-.4v-3.9000000000000004c0-.8-.3-1.3-.8-1.6-.5-.3-1.2-.4-1.9-.4-1.1 0-1.8.3-2.3.8-.3.4-.4.8-.5 1.4h1.6c0-.2.1-.4.2-.6.2-.2.4-.3.8-.3s.6 0 .8.1.3.3.3.5-.1.4-.4.5c-.1.1-.4.1-.7.1l-.3.3zm6.4-4.9h-1.7v8.6h1.7v-8.6zm3.7 6.9l-1-4.6h-1.8l1.8 6.4h1.7l1-4.7 1 4.7h1.7l1.9-6.4h-1.7l-1 4.6-1-4.6h-1.7l-.9 4.6zm10.8-.7c0 .6-.2.9-.5 1.2s-.6.3-1 .3c-.2 0-.4-.1-.6-.2-.2-.1-.2-.3-.2-.6s.1-.6.4-.7c.2-.1.4-.2.8-.2l.4-.1c.2 0 .3-.1.4-.1.1 0 .2-.1.3-.2v.6zm-1.6-1.3c-.6.1-1.1.2-1.5.4-.6.4-.9.9-.9 1.7 0 .6.2 1.1.6 1.4.4.3.9.5 1.4.5.5 0 .9-.1 1.2-.3.3-.2.6-.4.8-.6v.4c0 .1.1.2.1.4h1.8v-.2c-.1-.1-.2-.1-.2-.2-.1-.1-.1-.2-.1-.4v-3.9000000000000004c0-.8-.3-1.3-.8-1.6-.5-.3-1.2-.4-1.9-.4-1.1 0-1.8.3-2.3.8-.3.4-.4.8-.5 1.4h1.6c0-.2.1-.4.2-.6.2-.2.4-.3.8-.3s.6 0 .8.1.3.3.3.5-.1.4-.4.5c-.1.1-.4.1-.7.1l-.3.3zm8.2-2.8c-.5 0-.9.1-1.2.4-.2.2-.4.4-.7.9v-1.1h-1.6v6.4h1.7v-3.1c0-.5.1-.9.2-1.1.2-.4.7-.7 1.4-.7h.5v-1.7h-.3zm3.9 1.4c.4 0 .7.1 1 .3s.4.6.4 1h-2.9c.1-.4.2-.7.4-1 .3-.2.7-.3 1.1-.3zm0-1.4c-.9 0-1.7.3-2.3.9-.6.6-.9 1.4-.9 2.5 0 1.2.3 2 1 2.6.6.5 1.4.8 2.2.8 1 0 1.8-.3 2.4-.9.4-.4.6-.8.6-1.2h-1.7c-.1.2-.2.3-.3.4-.2.2-.5.3-.9.3s-.7-.1-.9-.2c-.4-.3-.6-.7-.7-1.3h4.7c0-.6 0-1-.1-1.3-.1-.5-.2-.9-.5-1.3s-.7-.7-1.1-.9c-.5-.3-1-.4-1.5-.4z"/><path class="st3" d="M195.3 237.3c-3 0-5.2 1.7-5.8 4.2 1.7-1 3.7-1.5 5.8-1.5 2.2 0 4.2.6 5.9 1.6-1-2.6-3.2-4.3-5.9-4.3z"/><path class="st2" d="M214.9 251.2c-1.6-1.5-5.2-2.3-8.3-2-.1-.7-.3-1.4-.6-2 3.2-1.6 5.2-4.5 5.2-7.7 0-.4-.4-.8-1-.8s-1 .4-1 .8c0 2.6-1.5 4.8-3.9 6.1-.5-.8-1-1.5-1.7-2.2-.2-3.4-2.3-6.1-5.2-7.2.7-2.5 3.5-3.7 8.8-3.5.4 0 .7-.2.7-.5s-.3-.6-.6-.6c-5.8-.1-9.2 1.3-10.1 4.2-.5-.1-1.1-.2-1.7-.2-.7 0-1.4.1-2.1.2-1.3-3.9-6.8-4.4-10.1-4.3-.4 0-.7.3-.6.6 0 .3.3.6.7.5 3.6-.1 7.8.5 8.8 3.6-2.8 1.1-4.7 3.7-4.8 6.9-.8.7-1.4 1.6-2 2.5-2.6-1.3-4.2-3.7-4.2-6.3 0-.4-.4-.8-1-.8s-1 .4-1 .8c0 3.3 2.1 6.3 5.4 7.8-.2.6-.4 1.3-.5 1.9-3.1-.4-7 .5-8.7 2-.4.4-.4.9 0 1.2.2.1.4.2.7.2.3 0 .5-.1.7-.3 1.1-1 4.3-1.9 7-1.5v.2c0 1.2.2 2.4.6 3.5-3.8.3-5.8 3.5-5.8 6.6 0 .4.4.8 1 .8.5 0 1-.4 1-.8 0-2.4 1.3-5 4.3-5h.3c.5.9 1.2 1.8 2 2.5.2-.6.5-1.2.8-1.8-1.3-1.6-2.1-3.7-2.1-5.9 0-5.2 4.3-9.4 9.5-9.4s9.5 4.2 9.5 9.4c0 1.9-.6 3.7-1.6 5.2.4.5.7 1.1 1 1.7.4-.5.8-1.1 1.2-1.7 2.9 0 4.2 2.6 4.2 5 0 .4.4.8 1 .8.5 0 1-.4 1-.8 0-3.1-1.9-6.2-5.4-6.6.4-1.1.6-2.3.6-3.6v-.2c2.7-.3 5.6.6 6.7 1.5.2.2.4.3.7.3.2 0 .5-.1.7-.2.3-.1.3-.6-.1-.9zm-19.6-11.2c-2.2 0-4.1.6-5.8 1.5.7-2.5 2.9-4.2 5.8-4.2 2.7 0 5 1.7 5.9 4.2-1.8-.9-3.8-1.5-5.9-1.5z"/><defs><path id="SVGID_1_" d="M203 261.3c-.2-3.9-3.6-6.9-7.6-6.7-1.9.1-3.7.9-5 2.3-1.3 1.4-2 3.2-1.9 5.1.1 1.9.9 3.6 2.4 4.9 1.4 1.2 3.1 1.8 4.9 1.8h.4c3.9-.2 7-3.5 6.8-7.4zm-10.8-2.8c.9-.9 2.1-1.5 3.4-1.6h.2c.9 0 1.7.2 2.4.6l-6.3 6.8c-.5-.7-.8-1.6-.9-2.5-.1-1.2.3-2.4 1.2-3.3zm3.8 7.9c-.9 0-1.7-.1-2.4-.5l6.3-6.8c.4.7.7 1.4.8 2.3.1 2.6-2 4.8-4.7 5z"/></defs><clipPath id="SVGID_2_"><use xlink:href="#SVGID_1_" overflow="visible"/></clipPath><path class="st4" d="M183.5 249.6h24.4v24h-24.4z"/></g><g id="privacy"><path class="st2" d="M233.4 359.7c0 .4-.1.8-.3 1-.2.2-.5.3-1 .3h-1.6v-2.5h1.6c.4 0 .7.1 1 .3.2.1.3.4.3.9zm1.8 0c0-.9-.3-1.6-.8-2.1s-1.2-.7-2-.7h-3.7v8.6h1.8v-3.1h1.8c.9 0 1.7-.2 2.2-.6s.7-1.1.7-2.1zm4.8-.7c-.5 0-.9.1-1.2.4-.2.2-.4.4-.7.9v-1.1h-1.6v6.4h1.7v-3.1c0-.5.1-.9.2-1.1.2-.4.7-.7 1.4-.7h.5v-1.7h-.3zm2.9-2.1h-1.7v1.5h1.7v-1.5zm-1.7 8.7h1.7v-6.4h-1.7v6.4zm5.9-1.7l-1.3-4.7h-1.9l2.3 6.4h1.8l2.3-6.4h-1.8l-1.4 4.7zm7.6-.8c0 .6-.2.9-.5 1.2s-.6.3-1 .3c-.2 0-.4-.1-.6-.2-.2-.1-.2-.3-.2-.6s.1-.6.4-.7c.2-.1.4-.2.8-.2l.4-.1c.2 0 .3-.1.4-.1.1 0 .2-.1.3-.2v.6zm-1.6-1.3c-.6.1-1.1.2-1.5.4-.6.4-.9.9-.9 1.7 0 .6.2 1.1.6 1.4.4.3.9.5 1.4.5.5 0 .9-.1 1.2-.3.3-.2.6-.4.8-.6v.4c0 .1.1.2.1.4h1.8v-.2c-.1-.1-.2-.1-.2-.2-.1-.1-.1-.2-.1-.4v-3.9000000000000004c0-.8-.3-1.3-.8-1.6-.5-.3-1.2-.4-1.9-.4-1.1 0-1.8.3-2.3.8-.3.4-.4.8-.5 1.4h1.6c0-.2.1-.4.2-.6.2-.2.4-.3.8-.3s.6 0 .8.1.3.3.3.5-.1.4-.4.5c-.1.1-.4.1-.7.1l-.3.3zm10.3-.3c-.1-.9-.4-1.5-.9-1.9-.5-.4-1.2-.5-2-.5-.9 0-1.7.3-2.2.9s-.8 1.5-.8 2.6c0 1 .2 1.8.7 2.4s1.2.9 2.3.9c1 0 1.8-.4 2.3-1.1.3-.5.5-.9.6-1.4h-1.7c0 .3-.1.6-.3.8s-.4.3-.8.3c-.6 0-.9-.3-1.1-.8-.1-.3-.2-.7-.2-1.1 0-.5.1-.9.2-1.2.2-.6.6-.8 1.2-.8.4 0 .7.1.9.4.1.2.2.4.2.6h1.6v-.1zm1.4 6.6h.8c.7 0 1.2-.1 1.5-.4.2-.3.6-1 1-2.3l2.2-6.3h-1.8l-1.3 4.7-1.4-4.7h-1.9l2.3 6.7s0 .2-.1.4-.2.3-.3.4c-.1.1-.2.1-.4.1h-.7v1.4h.1z"/><path class="st5" d="M186.6 354.7c2.8 1.9 6.1 2.9 9.9 2.9 3.8 0 7-1 9.7-2.9"/><defs><path id="SVGID_3_" d="M186.7 367.1s5.2 1 9.4 1c2.8-.1 6.1-.3 10-.8-.5 4.1-1.7 6.2-3.6 6.2-2.9 0-3.7-1.2-6.2-1.1-2.5.1-2.4 1.1-5.9 1.1-3.4-.1-3.7-6.4-3.7-6.4zm16.8 1.7l-5.3 1.6c1.3 1.1 2.6 1.6 3.9 1.6 1.3-.1 1.8-1.1 1.4-3.2zm-14.4 0c-.3 2 .1 3.1 1.4 3.1 1.3.1 2.6-.5 3.9-1.6l-5.3-1.5z"/></defs><clipPath id="SVGID_4_"><use xlink:href="#SVGID_3_" overflow="visible"/></clipPath><path class="st6" d="M181.7 362.1h29.4v16.3h-29.4z"/><path class="st5" d="M186.7 358c-.3-4.3 1.4-11.2 5-11.2 2.6 0 1.9 1.1 4.7 1.1s1.4-1.1 4.2-1.1 5.5 5 5.5 11.2c-3.3 1.9-6.8 2.6-9.7 2.6s-7.7-1.3-9.7-2.6zm19-3.2c5.4 1.5 8.1 3.1 8.1 4.8 0 2.5-6.7 5.5-17.3 5.7-10.6.2-18.2-2.7-18.2-5.7 0-2 2.7-3.6 8.3-4.8"/><defs><path id="SVGID_5_" d="M203.6 381.3c-.2-3.9-3.6-6.9-7.6-6.7-2 .1-3.7.9-5 2.3-1.3 1.4-2 3.2-1.9 5.1.1 1.9.9 3.6 2.4 4.9 1.4 1.2 3.1 1.8 4.9 1.8h.4c3.9-.2 7-3.5 6.8-7.4zm-10.9-2.8c.9-.9 2.1-1.5 3.4-1.6h.2c.9 0 1.7.2 2.4.6l-6.4 6.8c-.5-.7-.8-1.6-.9-2.5 0-1.2.4-2.4 1.3-3.3zm3.8 7.9c-.9 0-1.7-.1-2.5-.5l6.4-6.8c.5.7.7 1.4.8 2.3.2 2.6-1.9 4.8-4.7 5z"/></defs><clipPath id="SVGID_6_"><use xlink:href="#SVGID_5_" overflow="visible"/></clipPath><path class="st7" d="M184 369.6h24.6v24h-24.6z"/></g><g id="phising"><path class="st2" d="M225.4 305.7c0 .4-.1.8-.3 1-.2.2-.5.3-1 .3h-1.6v-2.5h1.6c.4 0 .7.1 1 .3.2.1.3.4.3.9zm1.8 0c0-.9-.3-1.6-.8-2.1s-1.2-.7-2-.7h-3.7v8.6h1.8v-3.1h1.8c.9 0 1.7-.2 2.2-.6s.7-1.1.7-2.1zm4.9-.7c-.4 0-.7.1-1 .2s-.6.4-.8.8v-3h-1.7v8.6h1.7v-3.5c0-.5.1-1 .3-1.3.2-.3.6-.4 1-.4s.7.1.9.4c.1.2.2.5.2.8v3.9h1.7v-3.8c0-.6 0-1-.1-1.2s-.1-.5-.3-.7c-.2-.3-.5-.5-.8-.6-.4-.1-.8-.2-1.1-.2zm5.5-2.1h-1.7v1.5h1.7v-1.5zm-1.7 8.7h1.7v-6.4h-1.7v6.4zm2.9-2.1c0 .7.2 1.2.7 1.6.5.4 1.2.6 2.2.6 1 0 1.7-.2 2.2-.6.5-.4.7-.9.7-1.5 0-.5-.2-.9-.5-1.2-.3-.3-.8-.6-1.5-.7-1-.2-1.6-.4-1.7-.5-.2-.1-.2-.2-.2-.4s.1-.3.2-.4c.2-.1.4-.2.8-.2s.8.1.9.3c.1.1.2.3.2.5h1.7c-.1-.8-.4-1.3-.9-1.6-.5-.3-1.2-.5-2-.5s-1.5.2-2 .6c-.5.4-.7.9-.7 1.5 0 .5.1.9.4 1.1.3.3.8.5 1.5.7 1 .2 1.6.4 1.7.5.2.1.2.2.2.4s-.1.3-.3.4c-.2.1-.5.1-.8.1-.6 0-.9-.1-1.2-.3-.1-.1-.2-.3-.2-.6h-1.4v.2zm10.6-4.5c-.4 0-.7.1-1 .2s-.6.4-.8.8v-3h-1.7v8.6h1.7v-3.5c0-.5.1-1 .3-1.3.2-.3.6-.4 1-.4s.7.1.9.4c.1.2.2.5.2.8v3.9h1.7v-3.8c0-.6 0-1-.1-1.2s-.1-.5-.3-.7c-.2-.3-.5-.5-.8-.6-.4-.1-.7-.2-1.1-.2zm5.5-2.1h-1.7v1.5h1.7v-1.5zm-1.7 8.7h1.7v-6.4h-1.7v6.4zm6.9-6.6c-.5 0-1 .1-1.3.4-.2.1-.4.4-.6.7v-.9h-1.6v6.4h1.7v-3.5c0-.4.1-.7.2-1 .2-.5.6-.7 1.2-.7.5 0 .8.2.9.5.1.2.1.4.1.8v3.9h1.7v-4.3c0-.8-.2-1.4-.6-1.7-.5-.4-1.1-.6-1.7-.6zm6.5 5.2c-.6 0-1-.3-1.2-.8-.1-.3-.2-.6-.2-1s.1-.8.2-1.1c.2-.6.6-.8 1.2-.8.4 0 .8.2 1 .5s.4.8.4 1.4c0 .6-.1 1.1-.4 1.4-.3.3-.6.4-1 .4zm-.4-5.2c-.9 0-1.5.3-2 1-.5.6-.7 1.4-.7 2.4s.2 1.8.7 2.3c.5.6 1.1.9 2 .9.5 0 1-.1 1.3-.4.2-.1.4-.3.5-.6v.4c0 .6-.1 1-.2 1.3-.2.4-.6.6-1.2.6-.4 0-.7-.1-.9-.2-.1-.1-.2-.2-.2-.4h-1.8c.1.6.3 1.1.9 1.4.5.3 1.2.5 2 .5 1.4 0 2.3-.4 2.7-1.1.3-.4.4-1 .4-1.9v-6.1h-1.7v.9c-.2-.4-.6-.8-1-.9-.2 0-.5-.1-.8-.1z"/><defs><path id="SVGID_7_" d="M201.5 310.7c-.5-.4-1-.7-1.5-1 .6-1.5.9-3.3.9-5.4v-11.3h1.8v11.3c.1 2.4-.4 4.6-1.2 6.4zm-13.1 1c-.6-2.5-.2-5.9 1.4-9.7l1.7.7c-1.2 3-1.7 5.6-1.5 7.6-.6.4-1.1.9-1.6 1.4z"/></defs><clipPath id="SVGID_8_"><use xlink:href="#SVGID_7_" overflow="visible"/></clipPath><path class="st8" d="M183.2 287.9h24.6v28.8h-24.6z"/><path class="st5" d="M201.7 292.9c2.1 0 3.8-1.6 3.8-3.7 0-2-1.7-3.7-3.8-3.7s-3.8 1.6-3.8 3.7 1.7 3.7 3.8 3.7z"/><defs><path id="SVGID_9_" d="M193.6 299s-1.4 2.4-2.2 4.2c-.3.5-.7 1.6-1.2 3.2l-3.8-2.1c4.7-3.6 7.2-5.3 7.2-5.3z"/></defs><clipPath id="SVGID_10_"><use xlink:href="#SVGID_9_" overflow="visible"/></clipPath><path class="st9" d="M181.3 294h17.3v17.4h-17.3z"/><defs><path id="SVGID_11_" d="M202.7 317.3c-.2-3.9-3.6-6.9-7.6-6.7-1.9.1-3.7.9-5 2.3-1.3 1.4-2 3.2-1.9 5.1.1 1.9.9 3.6 2.4 4.9 1.4 1.2 3.1 1.8 4.9 1.8h.4c3.9-.3 7-3.6 6.8-7.4zm-10.8-2.9c.9-.9 2.1-1.5 3.4-1.6h.2c.9 0 1.7.2 2.4.6l-6.3 6.9c-.5-.7-.8-1.6-.9-2.5-.1-1.2.3-2.5 1.2-3.4zm3.8 7.9c-.9 0-1.7-.1-2.4-.5l6.3-6.8c.4.7.7 1.5.8 2.3.1 2.7-2 4.9-4.7 5z"/></defs><clipPath id="SVGID_12_"><use xlink:href="#SVGID_11_" overflow="visible"/></clipPath><path class="st10" d="M183.2 305.5h24.4v24.1h-24.4z"/></g></g><g id="text_outline"><path class="st2" d="M354.4 207.7v-1.8h-3.6v-3.9h-1.5v3.8h-2v-4.4h-1.5v6.2h8.6v.1zm-2.5-6.7v-3.3h-1.6v3.3h1.6zm-.1-4.2c.9 0 1.6-.3 2.1-1s.8-1.5.8-2.7c0-1.1-.3-2-.8-2.6s-1.2-.9-2-.9-1.4.3-1.8.8c-.3.3-.5.8-.6 1.5l-.4 1.5c-.1.6-.3 1-.4 1.1-.2.3-.4.4-.7.4-.3 0-.6-.1-.8-.4s-.3-.7-.3-1.1c0-.4.1-.8.2-1.1.2-.4.6-.7 1.1-.7v-1.7c-.9 0-1.6.4-2.1 1-.5.7-.7 1.4-.7 2.4 0 1.1.3 1.9.8 2.5.5.6 1.2.9 1.9.9.8 0 1.5-.3 1.9-.9.2-.3.5-1 .7-1.9l.2-.9c.1-.5.3-.9.4-1.2.2-.3.4-.4.7-.4.5 0 .8.3 1 .8.1.3.1.6.1 1.1 0 .7-.2 1.2-.5 1.5-.2.2-.5.3-.9.3v1.7h.1zm-2.6-11c0-.4.1-.7.3-1s.6-.4 1-.4v2.9c-.4-.1-.7-.2-1-.4-.1-.3-.3-.7-.3-1.1zm-1.3 0c0 .9.3 1.7.9 2.3.6.6 1.4.9 2.5.9 1.2 0 2-.3 2.6-1s.8-1.4.8-2.2c0-1-.3-1.8-.9-2.4-.4-.4-.8-.6-1.2-.6v1.7c.2.1.3.2.4.3.2.2.3.5.3.9s-.1.7-.2.9c-.3.4-.7.6-1.3.7v-4.7c-.6 0-1 0-1.3.1-.5.1-.9.2-1.3.5s-.7.7-.9 1.1c-.3.4-.4.9-.4 1.5zm2.4-9.5c-.9.1-1.5.4-1.9.9-.4.5-.5 1.2-.5 2 0 .9.3 1.7.9 2.2s1.5.8 2.6.8c1 0 1.8-.2 2.4-.7s.9-1.2.9-2.3c0-1-.4-1.8-1.1-2.3-.5-.3-.9-.5-1.4-.6v1.7c.3 0 .6.1.8.3s.3.4.3.8c0 .6-.3.9-.8 1.1-.3.1-.7.2-1.1.2-.5 0-.9-.1-1.2-.2-.6-.2-.8-.6-.8-1.2 0-.4.1-.7.4-.9.2-.1.4-.2.6-.2v-1.6h-.1zm-2.3-1.1h3.8c.7 0 1.3-.1 1.7-.3.7-.3 1-1 1-1.9 0-.3 0-.6-.1-.9-.1-.2-.2-.5-.5-.8-.1-.1-.2-.2-.3-.2-.1-.1-.2-.1-.2-.1h.9v-1.6h-6.3v1.7h3.5c.4 0 .7.1 1 .2.5.2.7.6.7 1.2 0 .4-.2.7-.5.9-.2.1-.5.1-.8.1h-3.9v1.7zm-.1-10.9c0 .5.1.9.4 1.2.2.2.4.4.9.7h-1.2v1.6h6.4v-1.7h-3.1c-.5 0-.9-.1-1.1-.2-.4-.2-.7-.7-.7-1.4v-.5h-1.7c.1.2.1.2.1.3zm1.3-3.8c0-.4.1-.7.3-1s.6-.4 1-.4v2.9c-.4-.1-.7-.2-1-.4-.1-.4-.3-.7-.3-1.1zm-1.3 0c0 .9.3 1.7.9 2.3.6.6 1.4.9 2.5.9 1.2 0 2-.3 2.6-1s.8-1.4.8-2.2c0-1-.3-1.8-.9-2.4-.4-.4-.8-.6-1.2-.6v1.7c.2.1.3.2.4.3.2.2.3.5.3.9s-.1.7-.2.9c-.3.4-.7.6-1.3.7v-4.7c-.6 0-1 0-1.3.1-.5.1-.9.2-1.3.5s-.7.7-.9 1.1c-.3.4-.4.9-.4 1.5zM304.8 208.1c.9 0 1.6-.3 2.1-1s.8-1.5.8-2.7c0-1.1-.3-2-.8-2.6s-1.2-.9-2-.9-1.4.3-1.8.8c-.3.3-.5.8-.6 1.5l-.4 1.5c-.1.6-.3 1-.4 1.1-.2.3-.4.4-.7.4-.3 0-.6-.1-.8-.4s-.3-.7-.3-1.1c0-.4.1-.8.2-1.1.2-.4.6-.7 1.1-.7v-1.7c-.9 0-1.6.4-2.1 1-.5.7-.7 1.4-.7 2.4 0 1.1.3 1.9.8 2.5.5.6 1.2.9 1.9.9.8 0 1.5-.3 1.9-.9.2-.3.5-1 .7-1.9l.2-.9c.1-.5.3-.9.4-1.2.2-.3.4-.4.7-.4.5 0 .8.3 1 .8.1.3.1.6.1 1.1 0 .7-.2 1.2-.5 1.5-.2.2-.5.3-.9.3v1.7h.1zm-.6-12.7c.6 0 1.1.1 1.4.4.4.2.5.6.5 1.1 0 .3-.1.6-.3.8-.3.4-.8.6-1.6.6-.5 0-.9-.1-1.2-.2-.6-.2-.9-.6-.9-1.3 0-.5.2-.9.6-1.1.6-.2 1-.3 1.5-.3zm-3.3.9c0 .5.1 1 .4 1.3.2.2.4.4.7.6h-1v1.6h8.9v-1.7h-3.3c.3-.2.5-.4.6-.5.3-.3.4-.8.4-1.3 0-.8-.3-1.5-.9-2-.6-.5-1.4-.8-2.6-.8-1.1 0-1.9.3-2.4.8s-.8 1.3-.8 2zm4-7.4c.6 0 .9.2 1.2.5s.3.6.3 1c0 .2-.1.4-.2.6-.1.2-.3.2-.6.2s-.6-.1-.7-.4c-.1-.2-.2-.4-.2-.8l-.1-.4c0-.2-.1-.3-.1-.4 0-.1-.1-.2-.2-.3h.6zm-1.3 1.6c.1.6.2 1.1.4 1.5.4.6.9.9 1.7.9.6 0 1.1-.2 1.4-.6.3-.4.5-.9.5-1.4 0-.5-.1-.9-.3-1.2-.2-.3-.4-.6-.6-.8h.4c.1 0 .2-.1.4-.1v-1.8h-.2c-.1.1-.1.2-.2.2-.1.1-.2.1-.4.1h-3.5999999999999996c-.8 0-1.3.3-1.6.8-.3.5-.4 1.2-.4 1.9 0 1.1.3 1.8.8 2.3.4.3.8.4 1.4.5v-1.6c-.2 0-.4-.1-.6-.2-.2-.2-.3-.4-.3-.8s0-.6.1-.8.3-.3.5-.3.4.1.5.4c.1.1.1.4.1.7v.3zm-2.7-11.9c0 .4.1.8.3 1.1.2.3.5.6.8.8-.3.1-.6.3-.8.6-.2.3-.3.7-.3 1.2s.1.9.4 1.3c.1.2.4.4.7.6h-1v1.6h6.4v-1.7h-3.8c-.3 0-.6 0-.8-.1-.3-.2-.5-.5-.5-1 0-.4.2-.7.5-.8.2-.1.4-.1.8-.1h3.8v-1.7h-3.8c-.3 0-.5 0-.7-.1-.4-.2-.6-.5-.6-1 0-.4.1-.7.4-.8.2-.1.4-.1.6-.1h4.1v-1.7h-4c-.4 0-.7 0-.9.1-.3.1-.6.2-.8.4-.3.2-.5.5-.6.7-.2.2-.2.5-.2.7zm6.5-7v-1.8h-3.6v-3.8h-1.5v3.8h-2v-4.4h-1.5v6.2h8.6zm-8.7-8.9v1.7h1.5v-1.7h-1.5zm8.7 1.7v-1.7h-6.4v1.7h6.4zm-8.6-5v1.7h8.6v-1.7h-8.6zm3.5-1.9h3.9c.4 0 .7-.1.9-.3.3-.3.4-.8.4-1.6v-.8h-1.2v.4c0 .3 0 .5-.1.6-.1.1-.2.1-.5.1h-3.4v-1h-1.2v1h-1.8v1.7h1.8v.9h1.2v-1zm-.1-6.4c0-.4.1-.7.3-1s.6-.4 1-.4v2.9c-.4-.1-.7-.2-1-.4-.1-.3-.3-.6-.3-1.1zm-1.3 0c0 .9.3 1.7.9 2.3.6.6 1.4.9 2.5.9 1.2 0 2-.3 2.6-1s.8-1.4.8-2.2c0-1-.3-1.8-.9-2.4-.4-.4-.8-.6-1.2-.6v1.7c.2.1.3.2.4.3.2.2.3.5.3.9s-.1.7-.2.9c-.3.4-.7.6-1.3.7v-4.6c-.6 0-1 0-1.3.1-.5.1-.9.2-1.3.5s-.7.7-.9 1.1c-.3.4-.4.9-.4 1.4zm0-7.5c0 .5.1.9.4 1.2.2.2.4.4.9.7h-1.2v1.6h6.4v-1.7h-3.1c-.5 0-.9-.1-1.1-.2-.4-.2-.7-.7-.7-1.4v-.5h-1.7c.1.2.1.2.1.3zm4.5-.8c.7 0 1.2-.2 1.6-.7.4-.5.6-1.2.6-2.2 0-1-.2-1.7-.6-2.2-.4-.5-.9-.7-1.5-.7-.5 0-.9.2-1.2.5-.3.3-.6.8-.7 1.5-.2 1-.4 1.6-.5 1.7-.1.2-.2.2-.4.2s-.3-.1-.4-.2c-.1-.2-.2-.4-.2-.8s.1-.8.3-.9c.1-.1.3-.2.5-.2v-1.7c-.8.1-1.3.4-1.6.9-.3.5-.5 1.2-.5 2s.2 1.5.6 2c.4.5.9.7 1.5.7.5 0 .9-.1 1.1-.4.3-.3.5-.8.7-1.5.2-1 .4-1.6.5-1.7.1-.2.2-.2.4-.2s.3.1.4.3c.1.2.1.5.1.8 0 .6-.1.9-.3 1.2-.1.1-.3.2-.6.2v1.4h.2zM394.3 204.2c0-.8.2-1.4.7-1.6.5-.3 1.1-.4 2-.4.6 0 1.2.1 1.6.3.8.3 1.3.9 1.3 1.8v1.7h-5.6v-1.8zm-1.5-.3v3.7h8.6v-3.7c0-1.3-.5-2.3-1.6-2.9-.8-.5-1.8-.7-2.9-.7-.5 0-.9.1-1.4.2-.5.1-1 .3-1.4.6-.5.4-.9.9-1.1 1.5-.1.4-.2.8-.2 1.3zm8.6-4.9v-1.7h-6.1l6.1-3.5v-1.8h-8.6v1.7h6l-6 3.4v1.9h8.6zm-2.6-8.3c.9 0 1.6-.3 2.1-1s.8-1.5.8-2.7c0-1.1-.3-2-.8-2.6s-1.2-.9-2-.9-1.4.3-1.8.8c-.3.3-.5.8-.6 1.5l-.4 1.5c-.1.6-.3 1-.4 1.1-.2.3-.4.4-.7.4-.3 0-.6-.1-.8-.4s-.3-.7-.3-1.1c0-.4.1-.8.2-1.1.2-.4.6-.7 1.1-.7v-1.7c-.9 0-1.6.4-2.1 1-.5.7-.7 1.4-.7 2.4 0 1.1.3 1.9.8 2.5.5.6 1.2.9 1.9.9.8 0 1.5-.3 1.9-.9.2-.3.5-1 .7-1.9l.2-.9c.1-.5.3-.9.4-1.2.2-.3.4-.4.7-.4.5 0 .8.3 1 .8.1.3.1.6.1 1.1 0 .7-.2 1.2-.5 1.5-.2.2-.5.3-.9.3v1.7h.1zm0-8c.9 0 1.6-.3 2.1-1s.8-1.5.8-2.7c0-1.1-.3-2-.8-2.6s-1.2-.9-2-.9-1.4.3-1.8.8c-.3.3-.5.8-.6 1.5l-.4 1.5c-.1.6-.3 1-.4 1.1-.2.3-.4.4-.7.4-.3 0-.6-.1-.8-.4s-.3-.7-.3-1.1c0-.4.1-.8.2-1.1.2-.4.6-.7 1.1-.7v-1.7c-.9 0-1.6.4-2.1 1-.5.7-.7 1.4-.7 2.4 0 1.1.3 1.9.8 2.5.5.6 1.2.9 1.9.9.8 0 1.5-.3 1.9-.9.2-.3.5-1 .7-1.9l.2-.9c.1-.5.3-.9.4-1.2.2-.3.4-.4.7-.4.5 0 .8.3 1 .8.1.3.1.6.1 1.1 0 .7-.2 1.2-.5 1.5-.2.2-.5.3-.9.3v1.7h.1zm-6-14.8v6.3h8.6v-6.5h-1.6v4.8h-2.2v-4.2h-1.5v4.2h-1.8v-4.6h-1.5zm4.4-1.2c1.4 0 2.5-.4 3.3-1.1.8-.7 1.2-1.7 1.2-2.9 0-1-.3-1.8-.9-2.4-.6-.6-1.4-1-2.3-1.2v1.8c.4.1.8.3 1 .4.4.3.6.8.6 1.4 0 .6-.2 1.1-.7 1.5-.5.4-1.2.6-2.2.6-1 0-1.7-.2-2.2-.6-.5-.4-.8-.9-.8-1.5s.2-1.1.6-1.4c.2-.2.5-.3.9-.4v-1.8c-.5 0-1.1.2-1.6.6-1 .7-1.4 1.7-1.4 3.2 0 1.1.4 2 1.1 2.7.7.7 1.9 1.1 3.4 1.1zM448.4 207.7v-1.8h-3.6v-3.9h-1.5v3.8h-2v-4.4h-1.5v6.2h8.6v.1zm-7.1-11.2c0-.4.1-.6.2-.8.2-.3.5-.5 1.1-.5.5 0 .8.2 1 .5.1.2.1.5.1.9v1.9h-2.3v-2h-.1zm-1.5-.3v4.1h8.6v-1.8h-3.4v-1.8c0-.5.1-.8.3-1 .2-.2.6-.3 1.1-.3h.8c.3 0 .5 0 .7-.1.1 0 .3-.1.5-.1v-2h-.2c-.1.2-.3.3-.5.3h-1.4c-.6 0-1.1.1-1.4.2-.3.2-.5.4-.7.8-.2-.5-.4-.8-.8-1-.4-.2-.8-.3-1.2-.3-.3 0-.6.1-.9.2-.3.1-.5.3-.7.4-.3.2-.5.5-.6.8-.1.5-.2 1-.2 1.6zm0-6.2v1.8h8.6v-1.8h-8.6zm0-1h1.5v-2.6h7.1v-1.8h-7.1v-2.6h-1.5v7zm8.6-7.4v-6.7h-1.5v4.5l-5.7-4.5h-1.4v6.5h1.5v-4.3l5.6 4.4h1.5v.1zm-6.4-8.3l4-.5v-.9l-4-.5h-2.2v1.8h2.2v.1zm6.4-.1v-1.8h-1.7v1.8h1.7zm-7.1-7.2c0-.4 0-.8.1-1 .1-.3.4-.5.8-.5s.6.1.8.4c.1.2.2.5.2.9v2.1h-1.9v-1.9zm3.3-.2c0-.4.1-.7.1-.9.2-.4.5-.6.9-.6.5 0 .9.2 1.1.6.1.2.2.5.2.9v2.1h-2.3v-2.1zm-4.8-.3v4.2h8.6v-3.9c0-.4 0-.8-.1-1.2-.1-.4-.2-.7-.4-1-.2-.2-.4-.4-.7-.6-.4-.3-.9-.4-1.4-.4-.5 0-.9.1-1.3.3-.3.2-.6.6-.8 1-.1-.3-.3-.5-.5-.7-.3-.3-.7-.4-1.3-.4-.5 0-1 .1-1.3.4-.5.5-.8 1.2-.8 2.3zm7.4-7.2c0 .5-.2.9-.5 1.1s-.8.4-1.5.4c-.6 0-1.1-.1-1.5-.4s-.5-.6-.5-1.1c0-.5.2-.9.5-1.1.3-.3.8-.4 1.5-.4.6 0 1.1.1 1.5.4.4.2.5.6.5 1.1zm-2-3.3c-.9 0-1.7.3-2.4.8s-1 1.4-1 2.5.3 1.9 1 2.5c.7.5 1.5.8 2.4.8.9 0 1.7-.3 2.4-.8s1-1.4 1-2.5-.3-1.9-1-2.5-1.4-.8-2.4-.8zm3.2-2.6l-1.9-1.1 1.9-1.1v-2.1l-3.3 2.2-3.1-2.1v2l1.8 1-1.8 1.1v2l3.1-2.1 3.2 2.2v-2h.1zm-6.5-15.7c0 .4.1.8.3 1.1.2.3.5.6.8.8-.3.1-.6.3-.8.6-.2.3-.3.7-.3 1.2s.1.9.4 1.3c.1.2.4.4.7.6h-1v1.6h6.4v-1.7h-3.8c-.3 0-.6 0-.8-.1-.3-.2-.5-.5-.5-1 0-.4.2-.7.5-.8.2-.1.4-.1.8-.1h3.8v-1.7h-3.8c-.3 0-.5 0-.7-.1-.4-.2-.6-.5-.6-1 0-.4.1-.7.4-.8.2-.1.4-.1.6-.1h4.1v-1.7h-4c-.4 0-.7 0-.9.1-.3.1-.6.2-.8.4-.3.2-.5.5-.6.7-.2.1-.2.4-.2.7zm5.3-6.4c0 .5-.2.9-.5 1.1s-.8.4-1.5.4c-.6 0-1.1-.1-1.5-.4s-.5-.6-.5-1.1c0-.5.2-.9.5-1.1.3-.3.8-.4 1.5-.4.6 0 1.1.1 1.5.4.4.2.5.6.5 1.1zm-2-3.3c-.9 0-1.7.3-2.4.8s-1 1.4-1 2.5.3 1.9 1 2.5c.7.5 1.5.8 2.4.8.9 0 1.7-.3 2.4-.8s1-1.4 1-2.5-.3-1.9-1-2.5-1.4-.8-2.4-.8zm-3.3-3.6c0 .8.3 1.5.9 2 .6.5 1.5.8 2.6.8.9 0 1.7-.3 2.3-.8s.9-1.1.9-1.9c0-.5-.1-.8-.3-1.1s-.4-.6-.8-.8h.9v-1.6h-8.6v1.7h3c-.3.2-.5.4-.7.7-.1.3-.2.7-.2 1zm5.3-.3c0 .5-.2.8-.5 1.1-.4.2-.8.3-1.4.3-.5 0-1-.1-1.4-.3s-.6-.6-.6-1.1c0-.3.1-.6.3-.8.3-.4.9-.6 1.7-.6.6 0 1 .1 1.4.4s.5.5.5 1zm-4-7.3c0-.4.1-.7.3-1 .2-.3.6-.4 1-.4v2.9c-.4-.1-.7-.2-1-.4-.1-.3-.3-.7-.3-1.1zm-1.3 0c0 .9.3 1.7.9 2.3.6.6 1.4.9 2.5.9 1.2 0 2-.3 2.6-1 .5-.6.8-1.4.8-2.2 0-1-.3-1.8-.9-2.4-.4-.4-.8-.6-1.2-.6v1.7c.2.1.3.2.4.3.2.2.3.5.3.9s-.1.7-.2.9c-.3.4-.7.6-1.3.7v-4.7c-.6 0-1 0-1.3.1-.5.1-.9.2-1.3.5s-.7.7-.9 1.1c-.3.5-.4 1-.4 1.5zm0-11.1c0 .4.1.8.3 1.1.2.3.5.6.8.8-.3.1-.6.3-.8.6-.2.3-.3.7-.3 1.2s.1.9.4 1.3c.1.2.4.4.7.6h-1v1.6h6.4v-1.7h-3.8c-.3 0-.6 0-.8-.1-.3-.2-.5-.5-.5-1 0-.4.2-.7.5-.8.2-.1.4-.1.8-.1h3.8v-1.7h-3.8c-.3 0-.5 0-.7-.1-.4-.2-.6-.5-.6-1 0-.4.1-.7.4-.8.2-.1.4-.1.6-.1h4.1v-1.7h-4c-.4 0-.7 0-.9.1-.3.1-.6.2-.8.4-.3.2-.5.5-.6.7-.2.1-.2.4-.2.7z"/></g></svg>